<svg width="190" height="29" viewBox="0 0 190 29" fill="none" xmlns="http://www.w3.org/2000/svg">
<path d="M178.763 15.3251C178.502 15.3493 178.239 15.366 177.984 15.4024C177.818 15.4252 177.747 15.3585 177.636 15.3236C177.599 15.3114 177.56 15.2872 177.526 15.2902C177.268 15.3145 177.01 15.3418 176.752 15.3691C176.673 15.4282 176.623 15.5071 176.502 15.5359C176.383 15.5632 176.244 15.5632 176.112 15.5768C175.938 15.5935 175.765 15.6102 175.591 15.6254C175.504 15.633 175.433 15.6618 175.404 15.7164C175.399 15.7255 175.457 15.7482 175.488 15.7619C175.594 15.8074 175.696 15.859 175.812 15.8938C175.923 15.9272 176.059 15.8726 176.178 15.9151C176.444 16.0106 176.446 16.0091 176.649 15.9909C176.823 15.9742 176.997 15.956 177.17 15.9439C177.205 15.9409 177.244 15.9636 177.281 15.9757C177.391 16.0091 177.462 16.085 177.626 16.0561C177.749 16.0334 177.886 16.0288 178.015 16.0167C178.123 16.0607 178.223 16.1107 178.339 16.1456C178.447 16.179 178.479 16.2048 178.421 16.2488C178.368 16.2897 178.294 16.3064 178.197 16.3094C178.11 16.311 178.023 16.3246 177.936 16.3322C177.892 16.3367 177.849 16.3398 177.807 16.3443C177.641 16.361 177.641 16.361 177.339 16.2639C177.22 16.226 177.086 16.2791 176.973 16.2427C176.897 16.2184 176.831 16.182 176.757 16.1562C176.725 16.1456 176.675 16.1441 176.636 16.1471C176.504 16.1578 176.373 16.1653 176.246 16.1851C176.157 16.1987 176.104 16.2412 176.115 16.2836C176.117 16.3003 176.181 16.3246 176.217 16.3261C176.302 16.3292 176.391 16.3079 176.473 16.3185C176.552 16.3291 176.633 16.3595 176.691 16.3928C176.81 16.4626 176.944 16.4004 177.057 16.4186C177.176 16.4384 177.273 16.499 177.386 16.5354C177.415 16.5445 177.47 16.5294 177.515 16.5248C177.644 16.5142 177.773 16.5051 177.902 16.4945C178.01 16.5385 178.126 16.5779 178.223 16.6279C178.4 16.719 178.589 16.7538 178.818 16.7098C178.947 16.6856 179.073 16.6947 179.176 16.7538C179.281 16.8145 179.402 16.8084 179.537 16.7963C179.66 16.7842 179.787 16.7508 179.913 16.7933C180.187 16.8873 180.19 16.8919 180.513 16.8555C180.611 16.8448 180.684 16.8418 180.758 16.8767C180.826 16.9085 180.9 16.9358 180.971 16.9662C181.1 16.9556 181.232 16.9449 181.361 16.9328C181.527 16.9161 181.619 16.9374 181.658 17.0223C181.682 17.0739 181.693 17.1209 181.75 17.1558C181.819 17.1982 181.893 17.1967 181.993 17.1846C182.087 17.174 182.156 17.1573 182.195 17.1027C182.211 17.0799 182.243 17.0587 182.272 17.0405C182.295 17.0268 182.332 17.0056 182.353 17.0086C182.393 17.0147 182.445 17.0314 182.458 17.0511C182.587 17.2346 182.587 17.2362 182.719 17.2892C182.864 17.3484 183.014 17.4015 183.146 17.4682C183.264 17.5274 183.382 17.5016 183.511 17.5016C183.609 17.5016 183.672 17.541 183.664 17.5805C183.659 17.6032 183.622 17.6366 183.59 17.6396C183.332 17.6699 183.072 17.6957 182.811 17.7169C182.78 17.72 182.74 17.6927 182.703 17.679C182.63 17.6517 182.564 17.6093 182.485 17.6002C182.406 17.5911 182.314 17.6138 182.227 17.6214C182.14 17.629 182.048 17.6487 181.969 17.6366C181.89 17.6244 181.827 17.5804 181.753 17.5516C181.719 17.538 181.671 17.5183 181.643 17.5228C181.45 17.5592 181.308 17.5092 181.171 17.4424C181.142 17.4288 181.092 17.4197 181.056 17.4227C180.75 17.4485 180.447 17.4788 180.142 17.5076C180.018 17.5198 179.918 17.4667 179.892 17.3772C179.879 17.3272 179.853 17.2771 179.853 17.227C179.853 17.136 179.708 17.086 179.603 17.0966C179.429 17.1118 179.252 17.1239 179.081 17.1467C178.942 17.1649 178.823 17.1467 178.729 17.0921C178.618 17.0299 178.492 17.042 178.365 17.0587C178.271 17.0708 178.244 17.1209 178.249 17.2468C178.255 17.3484 178.21 17.3802 178.039 17.3969C177.823 17.4182 177.605 17.4394 177.386 17.4561C177.352 17.4591 177.312 17.4333 177.278 17.4197C177.204 17.3924 177.139 17.3484 177.06 17.3393C176.981 17.3287 176.889 17.3514 176.802 17.3605C176.715 17.3681 176.623 17.3893 176.544 17.3787C176.465 17.3681 176.399 17.3226 176.328 17.2938C176.294 17.2801 176.252 17.2604 176.217 17.2634C176.044 17.2756 175.87 17.2938 175.696 17.3105C175.501 17.3287 175.501 17.3287 175.225 17.2346C175.099 17.1922 174.972 17.2255 174.849 17.2377C174.717 17.2498 174.593 17.2559 174.491 17.1952C174.422 17.1558 174.346 17.1315 174.264 17.1391C174.046 17.1573 173.83 17.18 173.611 17.1982C173.575 17.2013 173.525 17.1937 173.496 17.18C173.356 17.1163 173.219 17.0663 173.024 17.0981C172.856 17.1254 172.674 17.1269 172.506 17.1527C172.414 17.1664 172.372 17.2149 172.39 17.2528C172.401 17.2726 172.456 17.2953 172.493 17.2953C172.577 17.2968 172.669 17.2741 172.748 17.2832C172.911 17.3014 172.993 17.4288 173.206 17.3939C173.332 17.3726 173.464 17.3651 173.596 17.359C173.63 17.3575 173.667 17.3863 173.704 17.4015C173.809 17.4424 173.901 17.4955 174.054 17.4682C174.18 17.447 174.314 17.4409 174.443 17.4288C174.649 17.4091 174.649 17.4106 174.914 17.5031C175.041 17.5471 175.167 17.5122 175.291 17.5016C175.383 17.494 175.47 17.4788 175.544 17.5001C175.657 17.5319 175.738 17.6047 175.878 17.6002C176.009 17.5956 176.138 17.5744 176.27 17.5668C176.352 17.5622 176.428 17.5865 176.494 17.6275C176.562 17.6684 176.636 17.6866 176.725 17.6775C176.854 17.6654 176.986 17.6502 177.118 17.6426C177.154 17.6411 177.197 17.6548 177.231 17.6669C177.305 17.6942 177.376 17.726 177.447 17.7549C177.576 17.7458 177.707 17.7427 177.834 17.7245C177.931 17.7109 177.999 17.717 178.078 17.7473C178.178 17.7882 178.26 17.861 178.423 17.8262C178.505 17.8095 178.6 17.814 178.681 17.7989C178.781 17.7791 178.85 17.7867 178.921 17.8322C179.055 17.9187 179.223 17.9202 179.397 17.8868C179.587 17.8504 179.729 17.8929 179.871 17.9596C180.021 18.0294 180.021 18.0279 180.137 18.1962C180.171 18.2448 180.268 18.2675 180.35 18.2584C180.487 18.2433 180.605 18.2508 180.705 18.3085C180.811 18.3707 180.937 18.3631 181.066 18.3464C181.237 18.3236 181.408 18.3039 181.548 18.3919C181.616 18.4344 181.69 18.445 181.782 18.4344C182.043 18.4071 182.306 18.3904 182.561 18.357C182.716 18.3358 182.806 18.3843 182.911 18.4253C183.053 18.4814 183.209 18.5314 183.209 18.6513C183.209 18.671 183.246 18.6937 183.277 18.7089C183.346 18.7407 183.419 18.768 183.49 18.7984C183.596 18.8439 183.698 18.8818 183.843 18.8575C183.969 18.8378 184.104 18.8317 184.233 18.8181C184.362 18.8044 184.48 18.7969 184.596 18.8545C184.73 18.9197 184.872 18.9819 185.025 19.0304C185.133 19.0653 185.275 19.0062 185.391 19.0532C185.462 19.082 185.53 19.1154 185.607 19.1396C185.638 19.1503 185.688 19.1427 185.73 19.1396C185.817 19.1336 185.907 19.129 185.991 19.1139C186.088 19.0972 186.162 19.1002 186.236 19.1351C186.304 19.167 186.373 19.2109 186.452 19.22C186.57 19.2337 186.702 19.173 186.82 19.2428C186.881 19.2777 186.957 19.311 187.036 19.3217C187.115 19.3323 187.207 19.3095 187.291 19.311C187.328 19.311 187.373 19.3353 187.394 19.355C187.407 19.3656 187.389 19.3945 187.37 19.4096C187.347 19.4278 187.312 19.4521 187.278 19.4551C187.018 19.4824 186.757 19.5052 186.496 19.531C186.341 19.5461 186.341 19.5461 186.028 19.4506C185.954 19.4278 185.873 19.4324 185.78 19.443C185.657 19.4566 185.53 19.4824 185.401 19.4551C185.233 19.352 185.025 19.3429 184.804 19.3823C184.712 19.399 184.627 19.399 184.559 19.3702C184.414 19.3125 184.262 19.2595 184.133 19.1912C184.033 19.1381 183.985 19.1336 183.943 19.2064C183.93 19.2291 183.917 19.2534 183.919 19.2746C183.935 19.3505 183.964 19.4248 183.98 19.5006C183.985 19.5219 183.964 19.5461 183.951 19.5689C183.909 19.6326 183.854 19.628 183.762 19.5749C183.669 19.5219 183.559 19.487 183.411 19.5112C183.285 19.5325 183.148 19.5294 183.022 19.5522C182.827 19.5856 182.69 19.537 182.551 19.4718C182.522 19.4582 182.472 19.4506 182.435 19.4536C182.043 19.4885 181.653 19.5279 181.261 19.5628C181.177 19.5704 181.1 19.5476 181.034 19.5067C180.966 19.4657 180.89 19.4445 180.805 19.4521C180.458 19.4839 180.111 19.5128 179.763 19.5522C179.621 19.5689 179.508 19.5492 179.41 19.4961C179.337 19.4566 179.268 19.4445 179.176 19.4491C179.076 19.4536 179.005 19.4688 178.955 19.5128C178.908 19.5552 178.942 19.581 179.047 19.6144C179.16 19.6508 179.266 19.6978 179.373 19.7403C179.46 19.7342 179.547 19.7221 179.631 19.7236C179.668 19.7236 179.703 19.7509 179.739 19.766C179.845 19.81 179.942 19.854 180.092 19.8298C180.218 19.8085 180.353 19.804 180.482 19.7903C180.661 19.7736 180.661 19.7736 180.95 19.8692C181.024 19.8935 181.103 19.8919 181.198 19.8783C181.279 19.8677 181.363 19.8889 181.421 19.9344C181.445 19.9526 181.437 19.983 181.387 20.0831C181.387 20.1574 181.442 20.124 181.461 20.0755C181.49 20.0057 181.435 19.9829 181.329 20.0209C181.256 20.0482 181.219 20.0876 181.237 20.1195C181.248 20.1361 181.298 20.1574 181.387 20.0831C181.619 19.9921 181.795 19.9814 181.964 19.9572C182.064 19.9435 182.127 19.9496 182.206 19.989C182.301 20.036 182.395 20.0861 182.551 20.0618C182.719 20.0345 182.898 20.0315 183.069 20.0087C183.227 19.9875 183.309 20.0542 183.409 20.0937C183.53 20.1407 183.664 20.0876 183.775 20.1149C183.89 20.1422 183.972 20.2089 184.106 20.2211C184.301 20.1801 184.425 20.256 184.572 20.306C184.688 20.3439 184.825 20.3105 184.949 20.2939C185.088 20.2757 185.204 20.2924 185.301 20.347C185.412 20.4092 185.536 20.3955 185.662 20.3818C185.957 20.3515 185.967 20.347 186.138 20.4304C186.262 20.491 186.381 20.4637 186.504 20.4562C186.612 20.4971 186.718 20.5411 186.831 20.5775C186.86 20.5866 186.915 20.5714 186.96 20.5669C187.089 20.5547 187.22 20.5426 187.349 20.5305C187.436 20.5229 187.528 20.5001 187.607 20.5092C187.686 20.5199 187.752 20.5639 187.823 20.5927C187.894 20.6215 187.968 20.6503 188.036 20.6806C188.142 20.7261 188.242 20.7641 188.389 20.7413C188.515 20.7216 188.647 20.7155 188.779 20.7019C188.944 20.6852 188.939 20.6897 189.247 20.7807C189.413 20.8308 189.584 20.7701 189.753 20.7641C189.837 20.761 189.918 20.7777 189.976 20.8217C190 20.8399 189.992 20.8702 190 20.896C189.566 20.937 189.129 20.9718 188.7 21.0219C188.534 21.0416 188.447 20.987 188.357 20.9415C188.21 20.8687 188.015 20.9749 187.876 20.8808C187.792 20.8247 187.67 20.7929 187.526 20.8202C187.441 20.8354 187.352 20.8338 187.265 20.8475C187.044 20.8808 186.841 20.8824 186.665 20.7777C186.604 20.7413 186.518 20.7216 186.454 20.6867C186.381 20.6488 186.31 20.6275 186.223 20.6351C185.83 20.6715 185.441 20.7079 185.051 20.7474C185.017 20.7504 184.983 20.7732 184.954 20.7898C184.88 20.8323 184.904 20.8657 185.022 20.893C185.062 20.9021 185.093 20.9218 185.13 20.937C185.201 20.9658 185.267 21.0113 185.346 21.0219C185.425 21.0325 185.517 21.0113 185.604 21.0037C185.691 20.9961 185.783 20.9734 185.862 20.9825C185.941 20.9931 186.007 21.0371 186.081 21.0644C186.115 21.078 186.157 21.1008 186.191 21.0993C186.365 21.0902 186.536 21.0735 186.71 21.0598C186.818 21.1008 186.91 21.1599 187.039 21.1736C187.12 21.1827 187.207 21.166 187.291 21.169C187.328 21.1705 187.376 21.1933 187.394 21.213C187.405 21.2251 187.37 21.2555 187.344 21.2706C187.244 21.3283 187.107 21.3177 186.983 21.3359C186.849 21.3556 186.728 21.3495 186.625 21.2904C186.557 21.2509 186.481 21.2297 186.396 21.2373C186.178 21.257 185.962 21.2798 185.744 21.2964C185.707 21.2995 185.662 21.2858 185.628 21.2752C185.351 21.1827 185.351 21.1796 185.157 21.1994C184.87 21.2282 184.87 21.2282 184.678 21.1478C184.641 21.1326 184.601 21.1038 184.57 21.1053C184.264 21.1296 183.962 21.1539 183.659 21.1887C183.559 21.1994 183.49 21.1994 183.417 21.1599C183.354 21.1266 183.28 21.0886 183.201 21.0795C183.119 21.0704 183.03 21.0932 182.943 21.1008C182.856 21.1084 182.764 21.1281 182.688 21.1159C182.609 21.1038 182.54 21.0613 182.472 21.031C182.401 20.9992 182.324 21.0007 182.227 21.0128C181.927 21.0477 181.924 21.0431 181.627 20.9491C181.592 20.9385 181.548 20.9263 181.511 20.9294C181.292 20.9476 181.077 20.9703 180.858 20.9885C180.774 20.9961 180.692 20.9764 180.634 20.9324C180.611 20.9142 180.619 20.8839 180.603 20.8247C180.584 20.8111 180.605 20.8354 180.611 20.8581C180.65 20.8551 180.698 20.8581 180.727 20.846C180.8 20.8171 180.837 20.7792 180.819 20.7474C180.808 20.7307 180.758 20.7094 180.727 20.7094C180.669 20.7094 180.619 20.7428 180.603 20.8247C180.437 20.8748 180.261 20.8854 180.089 20.9097C179.989 20.9248 179.926 20.9173 179.847 20.8778C179.753 20.8293 179.655 20.7823 179.5 20.8065C179.331 20.8338 179.152 20.8384 178.979 20.8596C178.779 20.8839 178.692 20.7474 178.523 20.7504C178.35 20.7534 178.176 20.7792 178.002 20.7974C177.849 20.8126 177.849 20.8126 177.534 20.714C177.418 20.6776 177.281 20.7307 177.168 20.6928C177.091 20.6685 177.026 20.6321 176.952 20.6063C176.92 20.5957 176.87 20.5957 176.831 20.5987C176.612 20.6169 176.391 20.6291 176.181 20.6624C175.941 20.7019 175.759 20.6594 175.588 20.5699C175.372 20.5866 175.154 20.5957 174.941 20.6245C174.785 20.6458 174.696 20.5957 174.591 20.5548C174.554 20.5411 174.522 20.5183 174.483 20.5123C174.443 20.5062 174.396 20.5183 174.354 20.5229C174.18 20.5396 174.001 20.5472 173.833 20.5745C173.625 20.6094 173.546 20.485 173.385 20.4698C173.277 20.5441 173.219 20.6457 173.006 20.6533C172.832 20.6594 172.659 20.6837 172.485 20.7004C172.398 20.7079 172.311 20.717 172.224 20.7246C172.085 20.7383 172.019 20.7974 172.048 20.8884C172.064 20.9385 172.077 20.9885 172.09 21.0386C172.116 21.1281 172.051 21.2039 171.94 21.2145C171.635 21.2433 171.332 21.2737 171.027 21.2995C170.945 21.307 170.866 21.2813 170.8 21.2403C170.732 21.1993 170.655 21.1812 170.571 21.1887C170.266 21.2176 169.963 21.2479 169.658 21.2737C169.624 21.2767 169.579 21.2615 169.545 21.2494C169.471 21.2221 169.4 21.1903 169.329 21.1614C169.155 21.1751 168.984 21.1842 168.813 21.2024C168.536 21.2297 168.536 21.2312 168.334 21.1478C168.297 21.1326 168.26 21.1038 168.226 21.1053C168.094 21.1114 167.965 21.1266 167.834 21.1402C167.447 21.1796 167.447 21.1796 167.333 21.1341C167.231 21.0917 167.139 21.0401 166.983 21.0644C166.815 21.0917 166.636 21.1008 166.462 21.1159C166.333 21.1266 166.204 21.1387 166.075 21.1417C166.041 21.1432 166.004 21.1144 165.967 21.0993C165.862 21.0522 165.759 21.0143 165.615 21.0401C165.53 21.0553 165.441 21.0583 165.354 21.0659C165.128 21.0871 165.128 21.0871 164.756 20.9961C164.72 20.987 164.675 20.9764 164.638 20.9809C164.333 21.0082 164.03 21.0386 163.725 21.0644C163.688 21.0674 163.643 21.0583 163.606 21.0507C163.19 20.9627 163.19 20.9628 162.748 21.0052C162.58 21.0204 162.574 21.0265 162.398 20.9461C162.319 20.9112 162.253 20.8945 162.161 20.9051C161.814 20.9415 161.464 20.9658 161.119 21.0083C160.963 21.0265 160.874 20.9809 160.769 20.94C160.732 20.9263 160.692 20.896 160.661 20.8975C160.313 20.9264 159.966 20.9612 159.618 20.9901C159.587 20.9931 159.547 20.9628 159.51 20.9491C159.439 20.9218 159.371 20.8808 159.292 20.8717C159.21 20.8626 159.121 20.8854 159.031 20.893C158.813 20.9127 158.813 20.9112 158.56 20.8217C158.526 20.8096 158.481 20.7929 158.447 20.7959C158.099 20.8262 157.749 20.852 157.405 20.896C157.207 20.9203 157.073 20.8763 156.933 20.8126C156.904 20.7989 156.854 20.7929 156.818 20.7959C156.425 20.8308 156.036 20.8702 155.644 20.9051C155.562 20.9127 155.483 20.8869 155.417 20.8475C155.312 20.7853 155.188 20.7929 155.057 20.8065C154.754 20.8384 154.751 20.8369 154.572 20.7641C154.535 20.7489 154.504 20.7292 154.464 20.7216C154.427 20.714 154.38 20.7186 154.341 20.7216C154.167 20.7368 153.993 20.7534 153.819 20.7701C153.646 20.7868 153.469 20.7959 153.298 20.8217C153.088 20.8536 152.988 20.7549 152.84 20.7094C152.624 20.7292 152.403 20.7413 152.19 20.7732C152.027 20.7974 151.951 20.7307 151.843 20.6958C151.806 20.6837 151.766 20.6579 151.732 20.6609C151.34 20.6943 150.948 20.7307 150.558 20.7716C150.463 20.7807 150.4 20.7686 150.321 20.7322C150.145 20.6503 150.137 20.6533 149.842 20.6837C149.713 20.6973 149.589 20.7095 149.479 20.6473C149.381 20.5912 149.263 20.5775 149.123 20.5957C148.952 20.6184 148.776 20.6306 148.602 20.6458C148.429 20.6624 148.255 20.6852 148.081 20.6928C147.942 20.7003 147.857 20.6291 147.747 20.5927C147.713 20.5821 147.665 20.5805 147.626 20.5836C147.452 20.5972 147.273 20.6078 147.105 20.6336C146.899 20.6655 146.786 20.5821 146.641 20.5335C146.61 20.5229 146.557 20.529 146.517 20.5335C146.212 20.5608 145.909 20.5911 145.604 20.62C145.496 20.579 145.386 20.5396 145.278 20.4986C145.104 20.5138 144.93 20.5305 144.756 20.5456C144.625 20.5578 144.491 20.5623 144.367 20.5851C144.206 20.6154 144.127 20.5441 144.019 20.5092C143.983 20.4971 143.943 20.4713 143.909 20.4744C143.69 20.491 143.472 20.5093 143.256 20.535C143.051 20.5608 142.969 20.4243 142.801 20.4258C142.627 20.4273 142.448 20.4471 142.28 20.4744C142.085 20.5062 141.948 20.4577 141.808 20.3925C141.779 20.3788 141.729 20.3712 141.693 20.3743C141.474 20.3925 141.258 20.4152 141.04 20.4334C141.003 20.4364 140.958 20.4289 140.921 20.4198C140.505 20.3303 140.505 20.3288 140.324 20.347C140.195 20.3591 140.063 20.3743 139.932 20.3818C139.895 20.3849 139.85 20.3712 139.816 20.3591C139.542 20.2666 139.542 20.2651 139.345 20.2833C139.171 20.2999 138.997 20.3166 138.823 20.3333C138.715 20.2923 138.605 20.2529 138.497 20.212C138.281 20.2317 138.06 20.2468 137.847 20.2741C137.747 20.2863 137.681 20.2817 137.605 20.2438C137.51 20.1983 137.415 20.1452 137.257 20.171C137.089 20.1983 136.91 20.2013 136.739 20.2241C136.533 20.2514 136.449 20.1134 136.283 20.1149C136.109 20.1164 135.93 20.1361 135.762 20.1634C135.567 20.1953 135.43 20.1468 135.291 20.0815C135.262 20.0679 135.212 20.0603 135.175 20.0633C134.696 20.1073 134.22 20.1513 133.74 20.1983C133.446 20.2271 133.446 20.2286 132.885 20.1452C132.845 20.1392 132.803 20.1331 132.764 20.1361C132.59 20.1498 132.411 20.1604 132.243 20.1862C132.037 20.218 131.924 20.1361 131.779 20.0861C131.748 20.0755 131.698 20.0815 131.656 20.0846C131.524 20.0952 131.395 20.1088 131.263 20.121C131.09 20.1377 130.916 20.1543 130.742 20.171C130.634 20.1316 130.524 20.0906 130.416 20.0512C130.2 20.0709 129.979 20.0815 129.766 20.1134C129.603 20.1376 129.526 20.0739 129.418 20.0375C129.381 20.0254 129.342 19.9996 129.308 20.0011C128.915 20.0345 128.523 20.0694 128.134 20.1119C127.973 20.1301 127.899 20.0618 127.792 20.0269C127.755 20.0163 127.713 19.9966 127.678 19.9996C127.418 20.0209 127.157 20.0466 126.897 20.0724C126.749 20.0876 126.749 20.0876 126.428 19.9936C126.391 19.9829 126.349 19.9723 126.312 19.9754C125.486 20.0512 124.662 20.1316 123.835 20.2074C123.751 20.215 123.675 20.1923 123.609 20.1513C123.54 20.1103 123.464 20.0891 123.38 20.0967C123.032 20.1286 122.682 20.1574 122.337 20.1968C122.195 20.2135 122.082 20.1938 121.985 20.1407C121.911 20.1012 121.843 20.0861 121.75 20.0952C121.577 20.1134 121.403 20.1285 121.229 20.1452C121.056 20.1619 120.882 20.1786 120.708 20.1953C120.534 20.212 120.358 20.2211 120.187 20.2469C119.976 20.2787 119.874 20.1847 119.729 20.1377C119.468 20.1604 119.208 20.1832 118.95 20.2074C118.602 20.2393 118.255 20.2742 117.907 20.3045C117.876 20.3075 117.836 20.2802 117.799 20.2666C117.691 20.2287 117.613 20.1756 117.452 20.1923C116.673 20.2726 115.888 20.3409 115.107 20.4198C114.943 20.4364 114.872 20.3712 114.762 20.3363C114.725 20.3257 114.683 20.3045 114.649 20.3075C114.214 20.3454 113.78 20.3879 113.346 20.4289C113.169 20.4455 113.169 20.4455 112.874 20.3515C112.84 20.3409 112.795 20.3272 112.759 20.3303C112.193 20.3818 111.629 20.4364 111.063 20.4895C110.979 20.4971 110.903 20.4759 110.834 20.4349C110.769 20.394 110.69 20.3712 110.608 20.3788C110.087 20.4273 109.563 20.4744 109.044 20.5274C108.905 20.5426 108.789 20.529 108.689 20.4744C108.618 20.4349 108.547 20.4182 108.457 20.4273C107.676 20.5017 106.894 20.573 106.112 20.6518C105.962 20.667 105.857 20.6382 105.762 20.5881C105.686 20.5487 105.62 20.5411 105.525 20.5472C105.425 20.5547 105.365 20.5714 105.309 20.6169C105.238 20.6761 105.193 20.7504 105.025 20.755C104.851 20.7595 104.675 20.7777 104.504 20.8035C104.341 20.8293 104.264 20.761 104.162 20.7201C104.085 20.6913 104.014 20.6867 103.917 20.7004C103.827 20.7125 103.772 20.7383 103.719 20.7868C103.604 20.8899 103.593 20.8899 103.451 20.8247C103.375 20.7898 103.306 20.7625 103.222 20.7686C102.874 20.7989 102.527 20.8323 102.179 20.8672C101.979 20.8869 101.977 20.8899 101.827 20.8141C101.753 20.7762 101.682 20.758 101.595 20.7671C100.64 20.8581 99.6841 20.9461 98.7286 21.0416C98.5812 21.0568 98.4812 21.0249 98.3759 20.9794C98.3417 20.9643 98.3075 20.943 98.268 20.937C98.2285 20.9309 98.1837 20.937 98.1416 20.94C97.4467 21.0052 96.7491 21.0674 96.0568 21.1402C95.8989 21.1569 95.8147 21.1084 95.7068 21.0689C95.6699 21.0553 95.6383 21.034 95.5988 21.028C95.5593 21.0234 95.5119 21.034 95.4698 21.0386C94.7749 21.1038 94.0774 21.166 93.3851 21.2388C93.2193 21.2555 93.1482 21.1918 93.0403 21.1584C93.0034 21.1463 92.9639 21.1235 92.9297 21.1265C92.7112 21.1432 92.4954 21.166 92.2769 21.1857C91.7557 21.2358 91.2345 21.2828 90.7133 21.3344C90.5133 21.3541 90.4264 21.2191 90.2579 21.2251C90.0394 21.2327 89.8236 21.2631 89.6051 21.2843C89.4314 21.301 89.2577 21.3162 89.0839 21.3344C88.9128 21.351 88.9128 21.351 88.4864 21.2631C88.4496 21.2555 88.4048 21.2449 88.368 21.2479C87.7599 21.304 87.1492 21.3601 86.5438 21.4208C86.4043 21.4345 86.2885 21.4269 86.1884 21.3708C86.1174 21.3313 86.0437 21.3116 85.9568 21.3207C85.0434 21.4071 84.1326 21.4936 83.2192 21.5785C83.185 21.5816 83.1403 21.5664 83.1061 21.5543C83.0324 21.527 82.9613 21.4951 82.8902 21.4663C82.8376 21.5012 82.7692 21.533 82.7349 21.5725C82.6876 21.6256 82.6244 21.6407 82.5243 21.6498C82.4243 21.6589 82.3612 21.6559 82.2822 21.6165C82.1874 21.5679 82.09 21.53 81.9347 21.5452C80.9792 21.6407 80.0237 21.7272 79.0681 21.8212C78.9102 21.8364 78.8365 21.7696 78.726 21.7348C78.6891 21.7241 78.647 21.7075 78.6128 21.7105C78.2206 21.7454 77.831 21.7833 77.4388 21.8197C76.3516 21.9228 75.2645 22.0214 74.1801 22.1306C73.9826 22.1504 73.8484 22.1124 73.7089 22.0472C73.6799 22.0336 73.6299 22.026 73.5931 22.029C72.0716 22.1716 70.5501 22.3157 69.0313 22.4598C68.9497 22.4673 68.8707 22.4431 68.8049 22.4036C68.7365 22.3627 68.6602 22.343 68.5759 22.3506C67.881 22.4158 67.1861 22.481 66.4912 22.5477C66.3175 22.5644 66.3148 22.5659 66.1358 22.4931C66.099 22.478 66.0595 22.4491 66.0306 22.4522C65.97 22.4598 65.9121 22.4977 65.87 22.5492C65.8278 22.6038 65.762 22.619 65.6646 22.6296C65.5646 22.6402 65.4988 22.6357 65.4225 22.5993C65.3251 22.5538 65.2356 22.5098 65.0776 22.525C63.0797 22.7191 61.0818 22.9057 59.084 23.0983C58.9234 23.1135 58.8497 23.0498 58.7391 23.0149C58.7023 23.0043 58.6654 22.9891 58.6259 22.9861C58.5838 22.983 58.5391 22.9921 58.497 22.9967C55.2382 23.3046 51.9795 23.614 48.7207 23.9219C48.5259 23.9401 48.5286 23.9401 48.3154 24.0796C48.289 24.0963 48.2548 24.119 48.2179 24.1221C47.2203 24.2192 46.2201 24.3132 45.2198 24.4072C44.7855 24.4482 44.3512 24.4907 43.9168 24.5301C43.7615 24.5437 43.7615 24.5437 43.3904 24.7076C43.3588 24.7212 43.3219 24.7394 43.2851 24.7424C41.5478 24.9078 39.8104 25.0731 38.0705 25.2354C37.9336 25.2475 37.8231 25.2748 37.7599 25.3476C37.7152 25.3992 37.6573 25.4295 37.5704 25.4386C36.3543 25.5539 35.1382 25.6707 33.9195 25.7829C33.7747 25.7966 33.6878 25.839 33.6167 25.9027C33.593 25.924 33.572 25.9482 33.5377 25.9634C33.5062 25.977 33.4588 25.9816 33.4193 25.9861C32.3769 26.0847 31.3346 26.1864 30.2896 26.2804C30.1343 26.2941 30.0711 26.3502 29.9947 26.4093C29.9684 26.429 29.95 26.4563 29.9157 26.47C29.8815 26.4821 29.8315 26.4821 29.7894 26.4852C28.9207 26.5671 28.0521 26.6505 27.1835 26.7324C27.015 26.7248 26.9781 26.8128 26.8965 26.8659C26.8676 26.8841 26.8466 26.9083 26.8123 26.9205C26.7755 26.9326 26.7281 26.9311 26.6833 26.9341C25.9884 26.9993 25.2935 27.0691 24.5959 27.1298C24.4354 27.1434 24.4038 27.2208 24.3169 27.2738C24.2879 27.2905 24.259 27.3163 24.2248 27.3209C23.7905 27.3649 23.3562 27.4058 22.9218 27.4452C22.7771 27.4589 22.7771 27.4574 22.5217 27.6075C22.4928 27.6242 22.4585 27.6424 22.4217 27.647C21.7715 27.7107 21.1187 27.7713 20.4659 27.8335C20.3817 27.8411 20.3238 27.8775 20.2817 27.9291C20.2395 27.9806 20.179 28.014 20.0948 28.0216C19.5736 28.0717 19.0524 28.1232 18.5312 28.1687C18.3864 28.1809 18.2917 28.2188 18.2285 28.287C18.1811 28.3386 18.1232 28.3644 18.0311 28.3735C17.5099 28.422 16.9887 28.4751 16.4649 28.5176C16.3122 28.5297 16.2332 28.5813 16.17 28.645C16.12 28.6965 16.0621 28.7147 15.9647 28.7238C15.0092 28.8118 14.0511 28.8998 13.0982 28.9968C12.9376 29.0135 12.856 28.9604 12.7507 28.9225C12.6007 28.8694 12.4612 28.8118 12.4612 28.6935C12.4612 28.6753 12.4164 28.6541 12.3848 28.6389C12.1506 28.5251 12.1506 28.5252 12.1137 28.4038C12.0927 28.3295 12.069 28.2537 12.0505 28.1778C12.0163 28.0535 11.9321 28.0216 11.6899 28.0444C11.603 28.0519 11.5162 28.0625 11.4293 28.0686C11.3003 28.0792 11.2029 28.0292 11.1792 27.9382C11.1661 27.8881 11.1503 27.8381 11.1372 27.788C11.2688 27.7759 11.2661 27.7744 11.4977 27.5909C11.5951 27.5135 11.5952 27.5135 11.4083 27.4361C11.3372 27.4073 11.2688 27.3755 11.1924 27.3482C11.1582 27.336 11.1135 27.3284 11.0766 27.3315C10.8581 27.3497 10.6423 27.3709 10.4265 27.3922C10.079 27.4255 10.079 27.4255 9.72623 27.2708C9.69728 27.2587 9.65252 27.2359 9.65779 27.2238C9.68674 27.1677 9.75781 27.1434 9.8473 27.1373C9.97892 27.1282 10.1079 27.1131 10.2369 27.1009C10.3237 27.0934 10.4106 27.0843 10.4975 27.0767C10.5791 27.019 10.6633 26.9629 10.7397 26.9038C10.8608 26.8128 10.8607 26.8097 10.6949 26.746C10.5896 26.7036 10.4764 26.6656 10.3685 26.6262C10.2395 26.6383 10.1079 26.652 9.97892 26.6626C9.81572 26.6763 9.7499 26.6474 9.70779 26.5488C9.67093 26.4624 9.71568 26.3881 9.84203 26.3699C9.97102 26.3517 10.0922 26.3396 10.158 26.2622C10.2211 26.1879 10.3317 26.159 10.4685 26.153C10.5554 26.1484 10.6423 26.1378 10.7291 26.1287C10.8423 26.1166 10.9029 26.0392 10.8792 25.9528C10.866 25.8967 10.8397 25.8496 10.737 25.8375C10.2817 25.7844 10.2764 25.7859 10.05 25.6828C10.0289 25.6737 10.0132 25.6464 10.0211 25.6328C10.0342 25.61 10.0632 25.5766 10.0948 25.5721C10.3975 25.5387 10.7002 25.5084 11.0029 25.4856C11.1029 25.4781 11.1766 25.4674 11.2109 25.4113C11.2582 25.3339 11.2372 25.2627 11.1451 25.2096C11.1161 25.1929 11.0687 25.1717 11.0371 25.1732C10.6896 25.2005 10.3448 25.2354 9.99736 25.2627C9.96577 25.2657 9.90789 25.2399 9.89473 25.2202C9.86841 25.1838 9.90787 25.1353 10 25.1186C10.1211 25.0958 10.2448 25.0943 10.3264 25.0185C10.4396 24.9108 10.5791 24.8122 10.7054 24.7091C10.7265 24.6909 10.7608 24.656 10.7529 24.6529C10.687 24.6196 10.6107 24.5938 10.5423 24.5619C10.4264 24.5089 10.4264 24.4345 10.4527 24.3633C10.4738 24.3056 10.5528 24.2829 10.6502 24.2829C10.6923 24.2829 10.7449 24.2829 10.7791 24.2692C10.8686 24.2358 10.8976 24.1934 10.8528 24.1615C10.8265 24.1433 10.7792 24.1175 10.7476 24.1206C10.1843 24.1706 9.6183 24.2192 9.05762 24.2813C8.89179 24.2995 8.81551 24.2419 8.71548 24.201C8.63914 24.1691 8.56803 24.157 8.47327 24.1797C8.38377 24.201 8.29694 24.1888 8.24166 24.1388C8.19691 24.0978 8.27586 24.0629 8.48907 24.0235C8.52856 24.0159 8.57329 24.0114 8.60224 23.9962C8.90759 23.8324 8.90758 23.8309 9.11816 23.8096C9.32348 23.7899 9.32353 23.7884 9.43145 23.7004C9.48146 23.6595 9.5367 23.6185 9.58408 23.5761C9.6025 23.5594 9.63413 23.529 9.6236 23.5199C9.56569 23.4729 9.48669 23.4623 9.39456 23.4729C9.18924 23.4987 8.94711 23.4775 8.83919 23.6216C8.79707 23.6762 8.73126 23.6913 8.6365 23.7004C7.68362 23.7884 6.7307 23.8825 5.77519 23.9674C5.61988 23.981 5.54885 24.0372 5.48831 24.0993C5.43567 24.1509 5.37774 24.1661 5.27772 24.1752C5.17769 24.1843 5.09868 24.1888 5.04077 24.1388C5.00655 24.1084 5.03552 24.066 5.11449 24.0235C5.22767 23.9628 5.2066 23.887 5.16975 23.8157C5.14343 23.7687 5.06183 23.7353 4.97497 23.7384C4.84599 23.7444 4.7223 23.7611 4.61438 23.7004C4.5512 23.6656 4.47222 23.6413 4.40115 23.6109C4.26427 23.5488 4.12739 23.4851 3.93523 23.526C3.80362 23.5109 3.71149 23.4563 3.6062 23.4138C3.42984 23.344 3.41404 23.3334 3.54039 23.2591C3.68253 23.1757 3.57196 23.0664 3.65093 22.9845C3.73516 22.8966 3.85102 22.8192 3.95368 22.7373C3.98 22.7161 4.0037 22.6964 4.03002 22.6751C3.96948 22.6448 3.91421 22.6069 3.84314 22.5857C3.75101 22.5584 3.70363 22.525 3.70889 22.4309C3.69047 22.4173 3.69831 22.4522 3.71937 22.4613C3.74306 22.4704 3.80101 22.4628 3.82997 22.4522C3.90367 22.4234 3.94048 22.3854 3.92206 22.3536C3.91153 22.3369 3.86155 22.3157 3.82997 22.3157C3.77206 22.3157 3.72205 22.349 3.70626 22.4309C3.41144 22.4931 3.10605 22.5235 2.80071 22.5477C2.76912 22.5508 2.72966 22.5204 2.69281 22.5053C2.57172 22.4537 2.57171 22.4552 2.21635 22.44C2.1795 22.4385 2.12951 22.4173 2.11109 22.3961C2.03475 22.3035 2.0374 22.2019 2.00055 22.1033C2.06899 22.0396 2.13738 21.9774 2.20845 21.9153C2.35059 21.7894 2.53489 21.6786 2.64545 21.5406C2.62176 21.4663 2.59016 21.392 2.70598 21.3313C3.03502 21.2555 3.0324 21.2555 3.1219 21.1827C3.37723 20.9764 3.62991 20.7686 3.89577 20.5654C3.96685 20.5123 3.96686 20.4835 3.84051 20.4607C3.80102 20.4547 3.75885 20.4531 3.71673 20.4562C3.58512 20.4668 3.45351 20.4941 3.32453 20.488C3.19555 20.4835 3.10078 20.4167 2.99549 20.3758C2.88757 20.3333 2.77965 20.2893 2.67173 20.2453C2.54801 20.2499 2.42432 20.2924 2.3006 20.2241C2.20584 20.171 2.0874 20.1331 1.97947 20.0891C2.06107 19.9738 2.21377 19.8859 2.33222 19.7842C2.44014 19.6917 2.44272 19.6933 2.73227 19.622C2.86914 19.5886 2.91653 19.4172 2.80071 19.3671C2.6612 19.3065 2.51382 19.2504 2.37168 19.1927C2.24796 19.1973 2.12164 19.2382 2.00319 19.17C1.91106 19.1184 1.80575 19.0835 1.65307 19.1032C1.39511 19.1366 1.13189 19.1533 0.871297 19.1806C0.7818 19.1897 0.684378 19.1836 0.644894 19.1321C0.618571 19.0957 0.694912 19.0456 0.781777 19.035C0.91339 19.0198 1.03183 19.0016 1.09764 18.9258C1.16081 18.85 1.27662 18.8272 1.4135 18.8166C1.45035 18.8135 1.4925 18.7953 1.51092 18.7771C1.60568 18.6892 1.71098 18.6133 1.91367 18.6164C1.9979 18.586 2.04262 18.5481 2.0163 18.5117C2.0005 18.492 1.94525 18.4662 1.91367 18.4693C1.69519 18.4844 1.47672 18.4996 1.2635 18.5269C1.16348 18.539 1.0871 18.542 1.02393 18.4965C0.979177 18.4662 1.00286 18.4253 1.0871 18.3813C1.1608 18.3434 1.18188 18.2994 1.17662 18.2478C1.16346 18.128 1.08447 18.0931 0.831775 18.1007C0.650148 18.1068 0.605397 18.087 0.565913 17.9839C0.555384 17.9596 0.529107 17.9263 0.547533 17.9096C0.660721 17.8064 0.734429 17.679 0.947643 17.6305C1.03188 17.6123 1.12134 17.6123 1.17398 17.5729C1.22663 17.5334 1.27403 17.4879 1.32931 17.45C1.39775 17.4045 1.44508 17.362 1.4135 17.3332C1.36085 17.2817 1.27665 17.2771 1.17925 17.2953C1.09502 17.3105 1.00553 17.312 0.91866 17.3211C0.763356 17.3378 0.637035 17.2983 0.618609 17.2316C0.568596 17.0557 0.515935 16.8812 0.471187 16.7053C0.465922 16.6841 0.479048 16.6568 0.500106 16.6386C0.573809 16.5749 0.652808 16.5142 0.729144 16.452C0.818642 16.3807 0.960807 16.3944 1.08189 16.3807C1.25299 16.361 1.25293 16.3625 1.48194 16.2169C1.57144 16.1593 1.72675 16.182 1.81888 16.1305C1.84783 16.1138 1.89258 16.0865 1.88468 16.0713C1.87415 16.0516 1.82154 16.0364 1.78205 16.0273C1.7452 16.0182 1.70046 16.0137 1.66098 16.0182C1.18191 16.0622 0.705477 16.1092 0.226404 16.1517C0.144803 16.1593 0.0553034 16.1259 0.0263484 16.0789C-0.00260657 16.0349 0.00526454 15.9818 0 15.9318C0.0763359 15.8696 0.163167 15.8119 0.228974 15.7452C0.278987 15.6936 0.336908 15.6709 0.436934 15.6678C0.568547 15.6633 0.697542 15.6451 0.844949 15.6314C1.11871 15.41 1.38718 15.178 1.68199 14.9565C1.80045 14.867 1.77154 14.776 1.79523 14.6805C1.81892 14.5925 1.99527 14.6062 2.11372 14.5804C2.20848 14.5591 2.24003 14.5106 2.20318 14.4772C2.18212 14.4575 2.13476 14.4347 2.09791 14.4347C2.01105 14.4347 1.92419 14.4484 1.83732 14.456C1.75046 14.4636 1.65043 14.459 1.57936 14.4848C1.51092 14.5091 1.46615 14.5606 1.4214 14.6046C1.37139 14.6532 1.30563 14.6699 1.2056 14.6729C1.07662 14.6759 0.947646 14.6896 0.818665 14.7002C0.676522 14.641 0.529084 14.5834 0.392206 14.5212C0.365883 14.5091 0.36059 14.4742 0.363223 14.4514C0.368487 14.3923 0.329013 14.3559 0.242148 14.3271C0.168445 14.3028 0.107897 14.2679 0.0394584 14.2376C0.0921038 14.1966 0.150034 14.1572 0.192151 14.1132C0.28428 14.0207 0.400113 13.954 0.600166 13.957C0.679134 13.8978 0.74229 13.825 0.844949 13.7841C0.942343 13.7446 1.10818 13.7841 1.18189 13.6946C1.21874 13.6506 1.27405 13.6005 1.34512 13.5823C1.45831 13.5535 1.60571 13.5687 1.67152 13.4838C1.711 13.4352 1.76889 13.3912 1.84522 13.3791C1.93209 13.3655 2.02156 13.3624 2.08474 13.3336C2.11896 13.3185 2.15581 13.2942 2.15581 13.2729C2.15581 13.2593 2.10321 13.2381 2.06636 13.229C2.03214 13.2183 1.98734 13.2108 1.94786 13.2138C1.81624 13.2229 1.68726 13.2396 1.55565 13.2487C1.5188 13.2517 1.47669 13.2411 1.43721 13.232C1.32139 13.2077 1.32927 13.1774 1.4214 13.1228C1.51353 13.0697 1.57937 13.0014 1.65571 12.9393C1.73994 12.9286 1.84522 12.9332 1.90313 12.9044C2.00052 12.8574 2.06894 12.7891 2.14791 12.7299C2.23478 12.7208 2.32427 12.7178 2.40587 12.7011C2.44009 12.6951 2.45589 12.6617 2.48485 12.642C2.53749 12.6041 2.58228 12.5495 2.65335 12.5313C2.76917 12.504 2.91131 12.5146 2.97975 12.4312C3.01923 12.3826 3.07975 12.3311 3.15346 12.328C3.35877 12.322 3.44564 12.2385 3.55093 12.1597C3.6299 12.1005 3.79837 12.1308 3.88524 12.0717C3.94315 12.0338 3.98529 11.9867 4.0432 11.9503C4.06689 11.9352 4.11688 11.9276 4.15637 11.9231C4.37221 11.9003 4.59068 11.8836 4.80653 11.8593C4.84075 11.8548 4.87236 11.8321 4.89869 11.8139C4.95396 11.7744 4.98814 11.7198 5.05658 11.694C5.12502 11.6682 5.2224 11.6683 5.30664 11.6607C5.57776 11.6379 5.59884 11.644 5.72256 11.515C5.82258 11.4104 6.06741 11.4847 6.14901 11.3694C6.19639 11.3027 6.28322 11.2481 6.43853 11.2405C6.657 11.2299 6.87285 11.2011 7.09132 11.1814C7.28611 11.1632 7.28349 11.1632 7.49407 11.0221C7.58883 10.9584 7.72837 10.9675 7.85209 10.9554C7.9837 10.9433 8.10477 10.9251 8.16795 10.8492C8.23112 10.7749 8.34692 10.7506 8.48117 10.74C8.60489 10.7294 8.74443 10.737 8.84182 10.6763C9.07873 10.5307 9.0761 10.5292 9.24193 10.514C9.50253 10.4897 9.76311 10.4655 10.0237 10.4397C10.1974 10.423 10.3791 10.42 10.5423 10.3866C10.6607 10.3623 10.7133 10.2774 10.7897 10.2183C11.0055 10.1955 11.2214 10.1727 11.4372 10.1515C11.7399 10.1212 12.0453 10.0939 12.3506 10.0651C12.4822 10.0074 12.5007 9.88002 12.7218 9.87396C12.8534 9.87092 12.9824 9.85121 13.114 9.83908C13.3325 9.81784 13.5483 9.79054 13.7668 9.77992C13.9326 9.77234 13.9615 9.69043 14.0484 9.63886C14.0774 9.62066 14.1037 9.59488 14.1379 9.59033C14.4801 9.54786 14.8328 9.53876 15.1671 9.47658C15.2013 9.47051 15.2329 9.43865 15.2408 9.4159C15.2461 9.40377 15.2013 9.38103 15.1724 9.37041C15.1382 9.35828 15.0934 9.34614 15.0566 9.34918C13.9695 9.4508 12.8824 9.55394 11.7952 9.65556C11.6426 9.67073 11.6426 9.6692 11.2714 9.83604C11.2398 9.84969 11.2029 9.86485 11.1634 9.8694C10.9897 9.8876 10.8134 9.89823 10.6423 9.92099C10.5027 9.93919 10.387 9.92097 10.2869 9.86637C10.2159 9.82693 10.1421 9.81481 10.0526 9.81784C9.9526 9.82239 9.88683 9.83908 9.82892 9.88003C9.75259 9.93615 9.71309 10.0089 9.55252 10.0241C8.81285 10.0893 8.07314 10.1621 7.33611 10.2319C7.23345 10.2107 7.18344 10.1788 7.20976 10.1409C7.22556 10.1182 7.25716 10.0878 7.28874 10.0848C7.59145 10.0529 7.89679 10.0256 8.1995 9.9953C8.24162 9.99075 8.29952 9.99377 8.32321 9.9786C8.43903 9.91035 8.48119 9.79963 8.69967 9.79205C8.82602 9.7875 8.95498 9.76476 9.07607 9.74352C9.11029 9.73745 9.14188 9.7056 9.14978 9.68285C9.15241 9.67072 9.11029 9.64796 9.0787 9.63734C8.96288 9.59336 8.82866 9.64646 8.71284 9.61612C8.67336 9.6055 8.61805 9.59033 8.61015 9.57213C8.60489 9.55545 8.64964 9.52814 8.68123 9.51146C8.71018 9.49629 8.74964 9.48265 8.78913 9.4781C9.13659 9.44321 9.4841 9.40681 9.83156 9.3795C9.9737 9.36889 10.0737 9.33096 10.1369 9.2612C10.1843 9.20963 10.2422 9.18233 10.3317 9.17475C10.9397 9.11863 11.5478 9.05645 12.1584 9.00488C12.3111 8.99274 12.3901 8.9427 12.4533 8.87748C12.5033 8.82591 12.5612 8.8077 12.6586 8.7986C13.5299 8.71973 14.3959 8.63177 15.2672 8.55593C15.4277 8.54228 15.4751 8.47706 15.5567 8.42094C15.5857 8.40122 15.6041 8.37696 15.6409 8.36482C15.6778 8.35269 15.7252 8.35419 15.7699 8.35116C16.4648 8.28594 17.1598 8.21618 17.8574 8.15551C18.0206 8.14186 18.0521 8.06602 18.1363 8.01293C18.1653 7.99625 18.1916 7.96895 18.2258 7.9644C18.747 7.91284 19.2682 7.8643 19.7894 7.81425C20.1369 7.78088 20.4843 7.74751 20.8318 7.71566C21.0029 7.70049 21.0029 7.69897 21.2345 7.55488C21.2608 7.53819 21.2977 7.51847 21.3319 7.51392C22.3322 7.41685 23.3298 7.32435 24.3301 7.2288C24.4143 7.22121 24.4748 7.18631 24.5169 7.13474C24.5591 7.08317 24.6197 7.04829 24.7013 7.0407C25.483 6.96487 26.2648 6.89055 27.0492 6.81927C27.1914 6.80713 27.2914 6.77073 27.3545 6.70248C27.4019 6.65091 27.4598 6.62362 27.5493 6.61603C28.3311 6.54323 29.1129 6.46587 29.8974 6.3961C30.0474 6.38244 30.1211 6.33088 30.1948 6.27021C30.2211 6.24898 30.2422 6.21409 30.2738 6.21106C30.6633 6.16859 31.0503 6.1246 31.4425 6.09579C31.6057 6.08365 31.661 6.01995 31.7268 5.95928C31.7794 5.91074 31.84 5.89406 31.94 5.888C32.1585 5.87435 32.3743 5.84857 32.5875 5.82279C32.6191 5.81824 32.6586 5.78487 32.6612 5.76363C32.6665 5.7242 32.6059 5.69689 32.5059 5.68324C31.4635 5.78183 30.4186 5.88041 29.3762 5.979C29.2051 5.99568 29.2051 5.99569 28.9734 6.13978C28.9471 6.15646 28.9102 6.17618 28.8734 6.18073C27.8731 6.27629 26.8755 6.37032 25.8752 6.46588C25.791 6.47346 25.7305 6.50835 25.6884 6.55991C25.6462 6.61148 25.5856 6.64637 25.504 6.65395C24.5485 6.74495 23.593 6.83748 22.6349 6.92393C22.4928 6.93607 22.3928 6.97093 22.3296 7.0407C22.2822 7.09227 22.2243 7.11958 22.1348 7.12717C21.2214 7.2121 20.3106 7.30158 19.3946 7.38349C19.3024 7.39107 19.234 7.34708 19.2393 7.30613C19.2419 7.2849 19.2814 7.25003 19.3129 7.247C19.7894 7.19694 20.2632 7.14537 20.7423 7.10745C20.9029 7.09532 20.9502 7.02858 21.0318 6.97246C21.0581 6.95274 21.0792 6.92696 21.1134 6.91634C21.1503 6.90421 21.1977 6.90573 21.2424 6.9027C22.3717 6.79501 23.5009 6.68581 24.6328 6.58419C24.796 6.56902 24.8276 6.49469 24.9118 6.4416C24.9407 6.4234 24.9671 6.39611 25.0013 6.39308C25.3488 6.35668 25.6962 6.32482 26.0437 6.29297C26.6517 6.23533 27.2598 6.17769 27.8705 6.12006C28.0468 6.10338 28.0468 6.10337 28.2732 5.9608C28.2995 5.94411 28.3364 5.92289 28.3706 5.91986C29.9789 5.76667 31.5873 5.61348 33.1956 5.4618C33.2798 5.45422 33.3404 5.41934 33.3825 5.36777C33.4246 5.31772 33.4851 5.28131 33.5667 5.27221C35.741 5.06594 37.9126 4.85966 40.0869 4.65641C40.229 4.64276 40.329 4.61091 40.3922 4.53962C40.4369 4.48805 40.4975 4.46076 40.587 4.45166C42.9771 4.22567 45.3672 3.99968 47.7599 3.77217C49.3682 3.6205 50.9766 3.46579 52.5849 3.31715C52.7323 3.3035 52.8112 3.25647 52.8849 3.19429C52.9086 3.17305 52.9323 3.13817 52.9639 3.13513C53.3088 3.09721 53.6536 3.06234 53.9984 3.02745C54.1063 3.0684 54.2142 3.10784 54.3222 3.1488C54.4038 3.09116 54.4828 3.032 54.5644 2.97437C55.0856 2.93038 55.5988 2.86213 56.1253 2.8409C56.1595 2.83938 56.1963 2.8682 56.2332 2.88337C56.478 2.97892 56.6175 2.97134 56.7728 2.84393C56.8281 2.79843 56.8755 2.75748 56.9597 2.7499C57.2203 2.7226 57.4836 2.70439 57.7415 2.67254C57.881 2.65586 57.9968 2.67102 58.0969 2.72562C58.1679 2.76506 58.2417 2.78175 58.3285 2.77265C58.8076 2.72715 59.284 2.68316 59.7631 2.63462C59.7973 2.63159 59.8289 2.6058 59.8552 2.5876C59.9105 2.54816 59.9579 2.5057 60.0105 2.46475C60.0816 2.49054 60.1606 2.51026 60.2185 2.54362C60.2922 2.58306 60.3606 2.58305 60.4606 2.57243C62.3717 2.38891 64.2853 2.20994 66.1964 2.0249C66.3596 2.00973 66.4306 2.07344 66.5412 2.10681C66.578 2.11894 66.6149 2.1341 66.6544 2.13713C66.6965 2.14017 66.7412 2.13107 66.7833 2.12652C68.2179 1.99002 69.6525 1.85502 71.0871 1.71851C71.2767 1.70031 71.2767 1.70031 71.5583 1.79435C71.5925 1.80649 71.6373 1.82014 71.6741 1.81559C72.3269 1.75644 72.9797 1.69274 73.6299 1.63207C73.7141 1.62449 73.7852 1.64875 73.8616 1.68363C74.0116 1.75189 74.0221 1.75189 74.1326 1.65179C74.1853 1.60477 74.2405 1.57594 74.3274 1.56229C74.4222 1.54712 74.4986 1.55169 74.5723 1.57899C74.6776 1.61691 74.7539 1.6806 74.9145 1.66392C75.6094 1.59263 76.3069 1.53348 76.9992 1.46068C77.1571 1.44399 77.2414 1.49556 77.3467 1.53348C77.3835 1.54713 77.4177 1.56836 77.4572 1.57292C77.4967 1.57747 77.5441 1.56684 77.5862 1.56229C78.4548 1.48038 79.3261 1.40001 80.1921 1.31204C80.3553 1.29536 80.4264 1.36057 80.537 1.39393C80.5738 1.40607 80.6159 1.42731 80.6501 1.42428C81.1713 1.37726 81.6952 1.32719 82.2164 1.27714C82.4033 1.25894 82.4032 1.26046 82.6875 1.35298C82.7217 1.36511 82.7665 1.37725 82.8034 1.37422C83.4114 1.3181 84.0221 1.26046 84.6302 1.20282C84.817 1.18462 84.8171 1.18463 85.3567 1.2635C85.3961 1.26956 85.4383 1.27868 85.4777 1.27564C86.1727 1.21042 86.8702 1.14671 87.5651 1.07694C87.7046 1.06329 87.8205 1.07542 87.9205 1.13002C87.9916 1.16946 88.0652 1.18615 88.1521 1.17705C88.9339 1.10273 89.7184 1.03145 90.4975 0.952579C90.6475 0.937412 90.7449 0.970766 90.8502 1.01475C90.8844 1.02992 90.9187 1.05116 90.9582 1.05722C90.9976 1.06329 91.0424 1.05722 91.0845 1.05267C91.8663 0.97835 92.6507 0.908584 93.4298 0.828197C93.5878 0.811513 93.672 0.863079 93.7773 0.900997C93.8142 0.914647 93.8536 0.94195 93.8852 0.940433C94.1905 0.914649 94.4959 0.891906 94.7986 0.853988C94.9618 0.832754 95.0329 0.902511 95.1434 0.935879C95.1803 0.946496 95.2224 0.969258 95.2566 0.966224C95.9094 0.907072 96.5623 0.844891 97.2124 0.781188C97.3046 0.772088 97.373 0.785726 97.4467 0.825161C97.5441 0.878246 97.6573 0.899481 97.7994 0.882797C98.1021 0.847912 98.4075 0.823651 98.7128 0.794833C98.8918 0.778149 98.8918 0.778155 99.4393 0.857024C99.4788 0.863091 99.5209 0.872185 99.5604 0.869152C100.082 0.820616 100.605 0.773601 101.124 0.720515C101.263 0.705348 101.379 0.718995 101.479 0.773597C101.55 0.813032 101.621 0.829725 101.711 0.820624C102.19 0.775123 102.667 0.729617 103.146 0.684115C103.319 0.667431 103.493 0.638606 103.667 0.638606C103.793 0.640123 103.885 0.712923 103.998 0.749324C104.03 0.759941 104.083 0.747822 104.125 0.744788C104.733 0.687153 105.343 0.634062 105.949 0.568843C106.107 0.552159 106.191 0.603724 106.296 0.641643C106.333 0.655293 106.373 0.682596 106.404 0.681079C106.623 0.664395 106.839 0.641642 107.057 0.621924C107.318 0.597657 107.581 0.579456 107.839 0.546088C108.049 0.518787 108.128 0.650738 108.297 0.655288C108.426 0.659838 108.557 0.634058 108.686 0.621924C108.947 0.597657 109.208 0.570359 109.468 0.549124C109.56 0.541541 109.631 0.517263 109.66 0.462661C109.666 0.452043 109.621 0.429302 109.592 0.415652C109.242 0.260946 109.242 0.260938 108.889 0.294306C108.671 0.31554 108.455 0.336778 108.236 0.354979C108.2 0.358012 108.157 0.345879 108.121 0.336779C108.015 0.310995 108.026 0.280663 108.115 0.226061C108.205 0.171459 108.273 0.104729 108.35 0.0425428C108.457 0.0819777 108.563 0.121399 108.671 0.160833C108.758 0.15325 108.844 0.144163 108.931 0.136579C109.366 0.0971442 109.8 0.0561896 110.234 0.0197882C110.266 0.0167547 110.305 0.0470937 110.342 0.062261C110.447 0.106246 110.542 0.144154 110.695 0.12747C111.084 0.0834848 111.477 0.0516335 111.866 0.0137153C112.037 -0.00296866 112.037 -0.00296718 112.337 0.0910699C112.372 0.101687 112.416 0.113822 112.453 0.110788C112.845 0.0759034 113.235 0.0379896 113.627 0.00158819C113.711 -0.00599545 113.793 0.0137213 113.854 0.0577063C113.877 0.0759071 113.872 0.106236 113.972 0.354979C114.283 0.556704 114.496 0.53548 114.712 0.517279C114.804 0.509695 114.885 0.502104 114.946 0.47177C114.978 0.455086 115.017 0.430815 115.017 0.411097C115.017 0.39593 114.959 0.371658 114.922 0.368624C114.662 0.33829 114.414 0.402001 114.159 0.415652C114.041 0.421719 113.938 0.368632 113.917 0.282179C113.912 0.257911 113.904 0.232128 113.896 0.207861C113.888 0.183593 113.883 0.15781 113.875 0.133543C113.772 0.125959 113.712 0.153256 113.667 0.204824C113.63 0.247293 113.577 0.295828 113.506 0.318579C113.435 0.342847 113.338 0.338305 113.251 0.345888C113.167 0.353472 113.074 0.373187 112.996 0.36257C112.917 0.350436 112.853 0.306444 112.78 0.279143C112.745 0.265492 112.703 0.245782 112.669 0.248815C112.366 0.2746 112.066 0.300375 111.766 0.333742C111.608 0.351943 111.529 0.28825 111.429 0.248815C111.35 0.218481 111.271 0.226055 111.258 0.295824C111.224 0.462664 111.345 0.53243 111.614 0.500579C111.835 0.473278 112.035 0.468742 112.208 0.571879C112.232 0.58553 112.287 0.591594 112.322 0.588561C112.537 0.57036 112.751 0.547607 112.967 0.529406C113.006 0.526373 113.048 0.53243 113.085 0.538497C113.622 0.6204 113.622 0.621925 113.804 0.603724C113.891 0.594624 113.975 0.58704 113.967 0.356497C114.133 0.109271 114.396 0.0925896 114.651 0.0561881C114.817 0.0334372 114.888 0.100176 114.996 0.135061C115.033 0.147195 115.072 0.171458 115.107 0.168424C115.673 0.118372 116.236 0.0652796 116.799 0.00916071C116.894 6.03503e-05 116.962 0.00916219 117.036 0.0485971C117.131 0.0986491 117.236 0.130507 117.386 0.112306C117.686 0.0759048 117.992 0.0531591 118.297 0.0228246C118.452 0.00765731 118.452 0.00764177 118.765 0.101679C118.8 0.112296 118.844 0.12443 118.881 0.121397C119.187 0.0956127 119.489 0.063771 119.792 0.0364699C119.876 0.0288863 119.953 0.0501183 120.018 0.0910699C120.084 0.132022 120.163 0.153253 120.245 0.14567C120.55 0.118369 120.853 0.0880438 121.156 0.0607428C121.192 0.0577093 121.237 0.0683257 121.271 0.0789427C121.592 0.17298 121.593 0.172964 121.74 0.157797C121.956 0.135046 122.177 0.124441 122.39 0.0941063C122.598 0.0637718 122.706 0.151735 122.848 0.20027C123.238 0.165385 123.63 0.136575 124.017 0.0941063C124.175 0.0759056 124.259 0.125953 124.364 0.165388C124.401 0.179039 124.438 0.207859 124.472 0.206343C124.604 0.200276 124.733 0.183595 124.862 0.171461C124.991 0.159327 125.122 0.147195 125.251 0.135061C125.399 0.179046 125.496 0.282182 125.707 0.247297C125.833 0.226063 125.967 0.221513 126.096 0.209379C126.225 0.197245 126.357 0.185113 126.486 0.172979C126.573 0.165395 126.662 0.160839 126.746 0.147188C126.902 0.124437 126.978 0.198766 127.089 0.232134C127.126 0.242751 127.168 0.26094 127.202 0.257906C127.462 0.236672 127.726 0.218473 127.981 0.183588C128.178 0.156287 128.313 0.201795 128.452 0.265497C128.481 0.279148 128.531 0.286731 128.568 0.283697C128.873 0.257913 129.176 0.226053 129.479 0.198752C129.56 0.191168 129.639 0.215435 129.705 0.25487C129.774 0.295821 129.85 0.315554 129.934 0.30797C130.237 0.280669 130.542 0.250325 130.845 0.223024C130.882 0.219991 130.927 0.232127 130.961 0.244261C131.256 0.338298 131.256 0.339816 131.429 0.321615C131.471 0.317065 131.516 0.31402 131.558 0.30947C131.774 0.288235 131.998 0.280662 132.208 0.244261C132.451 0.203309 132.627 0.25488 132.798 0.341334C133.014 0.323133 133.235 0.312514 133.446 0.282179C133.604 0.259428 133.688 0.317061 133.793 0.354979C133.83 0.368629 133.869 0.39593 133.901 0.392897C134.206 0.367113 134.512 0.34437 134.812 0.306452C134.975 0.285218 135.046 0.353458 135.157 0.388342C135.193 0.400476 135.233 0.421722 135.267 0.418688C135.441 0.406554 135.615 0.388345 135.788 0.371661C135.991 0.351943 135.991 0.353458 136.26 0.445979C136.386 0.489964 136.512 0.455078 136.636 0.444461C136.768 0.432327 136.891 0.423229 136.997 0.485415C137.062 0.52485 137.141 0.549118 137.223 0.543052C137.397 0.529401 137.573 0.515757 137.744 0.493006C137.881 0.474806 137.999 0.486933 138.099 0.543052C138.171 0.582486 138.244 0.602216 138.331 0.593115C138.721 0.556714 139.113 0.518782 139.502 0.483897C139.537 0.480864 139.584 0.494519 139.616 0.50817C139.689 0.535471 139.76 0.565799 139.832 0.596133C140.003 0.582483 140.179 0.576431 140.347 0.555197C140.526 0.533963 140.69 0.526377 140.829 0.609797C140.858 0.627998 140.9 0.653768 140.934 0.652251C141.066 0.646185 141.195 0.631022 141.324 0.618888C141.453 0.606754 141.585 0.594622 141.714 0.582488C141.864 0.620406 141.958 0.729609 142.169 0.694724C142.295 0.67349 142.43 0.66894 142.559 0.656806C142.688 0.644672 142.819 0.631023 142.948 0.620406C142.99 0.617373 143.038 0.609785 143.074 0.615852C143.114 0.621918 143.148 0.643157 143.182 0.658324C143.288 0.702309 143.385 0.7463 143.535 0.720515C143.661 0.699281 143.796 0.694729 143.925 0.681079C144.101 0.664395 144.101 0.664398 144.393 0.759952C144.512 0.799387 144.646 0.74782 144.759 0.781188C144.835 0.803939 144.901 0.841849 144.975 0.867633C145.007 0.87825 145.057 0.882794 145.093 0.879761C145.267 0.86611 145.444 0.852466 145.615 0.829715C145.754 0.811514 145.87 0.829713 145.967 0.884315C146.038 0.92375 146.109 0.940443 146.199 0.931343C146.633 0.888874 147.068 0.852461 147.499 0.805442C147.647 0.788758 147.765 0.814549 147.847 0.869152C147.986 0.963189 148.184 0.85247 148.328 0.928306C148.418 0.975325 148.507 1.02993 148.671 1.00718C148.971 0.967744 149.276 0.946498 149.579 0.919197C149.687 0.960149 149.795 1.00111 149.905 1.04206C150.079 1.02538 150.253 1.00868 150.426 0.993515C150.555 0.981381 150.687 0.967732 150.816 0.957115C150.858 0.954082 150.903 0.948013 150.942 0.955597C150.982 0.96318 151.013 0.982902 151.05 0.99807C151.232 1.07239 151.232 1.07391 151.532 1.04358C151.661 1.02993 151.785 1.02083 151.893 1.0815C151.993 1.13762 152.111 1.14823 152.248 1.13154C152.506 1.10121 152.767 1.07846 153.03 1.05722C153.111 1.04964 153.188 1.07543 153.256 1.11486C153.359 1.17705 153.485 1.17098 153.614 1.1543C153.785 1.13306 153.954 1.11183 154.098 1.19677C154.127 1.21497 154.172 1.24074 154.204 1.23922C154.42 1.22709 154.638 1.218 154.849 1.18918C155.059 1.16036 155.162 1.2544 155.307 1.2999C155.522 1.28018 155.741 1.26046 155.957 1.24074C155.999 1.23619 156.049 1.22255 156.086 1.23013C156.241 1.26198 156.331 1.37574 156.544 1.34085C156.668 1.32113 156.802 1.31507 156.931 1.31052C156.965 1.30901 157.01 1.33478 157.033 1.3545C157.047 1.36511 157.033 1.39393 157.018 1.4091C156.97 1.45157 156.912 1.49101 156.87 1.535C156.865 1.54106 156.915 1.56835 156.944 1.58049C157.015 1.60779 157.097 1.60325 157.191 1.59111C157.273 1.5805 157.357 1.60173 157.415 1.64723C157.439 1.66543 157.431 1.69577 157.381 1.79587C157.381 1.87019 157.436 1.83681 157.455 1.78828C157.484 1.71851 157.428 1.69576 157.323 1.73368C157.249 1.76098 157.212 1.80042 157.231 1.83227C157.241 1.84895 157.291 1.87019 157.381 1.79587C157.612 1.70487 157.786 1.68819 157.96 1.67151C158.005 1.66696 158.057 1.65178 158.089 1.66088C158.202 1.69728 158.307 1.74127 158.418 1.78222C158.544 1.77312 158.663 1.75036 158.786 1.80951C158.96 1.89293 158.968 1.88535 159.137 1.86867C159.223 1.85957 159.31 1.852 159.397 1.84442C159.484 1.83683 159.552 1.85958 159.629 1.89446C159.784 1.96575 159.797 1.96574 159.9 1.86867C159.96 1.80952 160.003 1.7898 160.079 1.81711C160.332 1.90963 160.334 1.91569 160.55 1.88839C160.729 1.86564 160.898 1.85957 161.029 1.94602C161.119 2.00669 161.148 1.99304 161.219 1.92934C161.408 1.76099 161.495 1.76401 161.85 1.88535C162.016 1.94299 162.187 1.88081 162.356 1.87322C162.498 1.86716 162.598 1.90355 162.609 1.99911C162.616 2.05826 162.64 2.10073 162.735 2.12045C162.772 2.12803 162.816 2.13865 162.853 2.13561C163.072 2.11741 163.288 2.09618 163.506 2.07494C163.617 2.06432 163.677 1.99305 163.656 1.89902C163.633 1.79891 163.675 1.7625 163.833 1.73368C163.927 1.71699 164.004 1.72004 164.08 1.74734C164.164 1.77768 164.141 1.80498 164.067 1.85958C163.89 1.99305 163.912 2.07494 164.138 2.16746C164.217 2.19931 164.28 2.22814 164.298 2.27516C164.309 2.29943 164.298 2.33128 164.322 2.34948C164.451 2.4511 164.63 2.51633 164.83 2.56486C165.022 2.52391 165.154 2.59215 165.301 2.64675C165.417 2.68922 165.554 2.65283 165.678 2.63766C165.817 2.62098 165.933 2.63311 166.033 2.68922C166.104 2.72866 166.178 2.74685 166.265 2.73927C166.438 2.72259 166.615 2.71197 166.786 2.68771C166.933 2.66647 167.044 2.69681 167.136 2.74838C167.252 2.8136 167.381 2.76961 167.502 2.77871C167.665 2.78932 167.747 2.92431 167.96 2.88791C168.086 2.86667 168.218 2.85909 168.35 2.85302C168.384 2.85151 168.426 2.8773 168.455 2.8955C168.594 2.97892 168.758 2.97436 168.937 2.9501C169.06 2.93341 169.181 2.91825 169.302 2.97589C169.502 3.07296 169.724 3.1579 169.934 3.24739C169.963 3.31716 169.942 3.39904 170.092 3.44C170.171 3.46123 170.245 3.49309 170.305 3.52798C170.379 3.56893 170.447 3.57955 170.542 3.56893C170.713 3.5477 170.892 3.54313 171.061 3.51583C171.216 3.49156 171.313 3.54163 171.408 3.58865C171.485 3.62657 171.556 3.64476 171.648 3.61746C171.743 3.59168 171.811 3.60835 171.887 3.64931C171.995 3.70542 172.003 3.69937 172.361 3.71605C172.398 3.71757 172.443 3.74031 172.464 3.76002C172.474 3.77064 172.451 3.80099 172.432 3.81616C172.409 3.83436 172.372 3.85558 172.337 3.86013C171.948 3.89957 171.556 3.93445 171.166 3.97389C171.127 3.97844 171.085 3.98907 171.056 4.00423C171.024 4.02092 170.984 4.04365 170.984 4.06489C170.984 4.08005 171.037 4.09826 171.074 4.10888C171.19 4.14376 171.327 4.09068 171.44 4.13011C171.516 4.1559 171.579 4.19229 171.656 4.21656C171.687 4.22718 171.737 4.22567 171.777 4.22263C171.908 4.21202 172.037 4.19685 172.169 4.18775C172.206 4.18623 172.248 4.20141 172.282 4.21354C172.535 4.30455 172.535 4.30454 172.753 4.28482C172.84 4.27724 172.932 4.25449 173.014 4.26359C173.093 4.27269 173.161 4.31364 173.232 4.33942C173.38 4.39403 173.519 4.44711 173.53 4.56541C173.535 4.61092 173.622 4.65034 173.709 4.65338C173.793 4.65641 173.883 4.63974 173.969 4.63064C174.175 4.61244 174.175 4.61244 174.441 4.70496C174.514 4.73074 174.593 4.73377 174.688 4.71861C174.725 4.71254 174.77 4.71861 174.809 4.7262C174.938 4.74895 174.938 4.77776 174.854 4.83236C174.735 4.91275 174.746 4.92033 175.078 4.98859C175.204 5.01437 175.301 5.06291 175.407 5.10538C175.578 5.17363 175.575 5.17362 175.462 5.2631C175.436 5.28282 175.412 5.30406 175.386 5.3253C175.309 5.38445 175.249 5.44815 175.091 5.45421C174.917 5.46028 174.743 5.48456 174.57 5.50124C174.401 5.51793 174.356 5.55431 174.372 5.65745C174.391 5.78182 174.425 5.79548 174.728 5.79396C174.814 5.79396 174.891 5.80609 174.957 5.84704C174.925 5.89558 174.867 5.9335 174.783 5.9426C174.567 5.96535 174.348 5.98507 174.133 6.00479C173.959 6.02147 173.785 6.03815 173.611 6.05483C173.504 6.06545 173.435 6.14433 173.464 6.2323C173.48 6.28235 173.493 6.3324 173.506 6.38245C173.535 6.48255 173.59 6.50835 173.767 6.5038C173.811 6.50228 173.854 6.49013 173.896 6.49317C174.067 6.50379 174.148 6.62967 174.354 6.60389C174.525 6.58265 174.704 6.57811 174.872 6.5508C175.028 6.52654 175.114 6.58115 175.222 6.62211C175.259 6.63576 175.299 6.66456 175.33 6.66304C175.549 6.64636 175.767 6.62969 175.981 6.60087C176.081 6.58873 176.141 6.59783 176.22 6.63423C176.41 6.7222 176.415 6.71765 176.696 6.69035C176.902 6.66912 176.904 6.67215 177.168 6.76467C177.241 6.79045 177.32 6.79045 177.415 6.77831C177.539 6.76315 177.668 6.73888 177.797 6.76163C177.836 6.7677 177.886 6.78591 177.899 6.80562C177.907 6.81927 177.87 6.85264 177.839 6.86326C177.607 6.94213 177.336 6.92848 177.083 6.96033C177.004 6.96943 176.925 6.94061 176.86 6.89966C176.791 6.85871 176.718 6.84203 176.628 6.84961C176.454 6.8663 176.278 6.87691 176.107 6.90118C175.959 6.92241 175.857 6.88752 175.754 6.8405C175.72 6.82534 175.68 6.79651 175.646 6.79803C175.257 6.82837 174.864 6.85871 174.477 6.90118C174.322 6.91938 174.233 6.87085 174.127 6.8299C174.091 6.81625 174.054 6.78742 174.019 6.78894C173.888 6.79501 173.759 6.81169 173.627 6.82382C173.148 6.86932 172.672 6.91483 172.193 6.9573C172.161 6.96033 172.122 6.92847 172.085 6.91482C172.014 6.88752 171.94 6.86173 171.866 6.83595C171.735 6.84808 171.606 6.86325 171.474 6.87235C171.379 6.87842 171.295 6.89966 171.282 6.9573C171.274 6.99521 171.361 7.03009 171.453 7.02706C171.543 7.02403 171.632 7.00582 171.706 7.02554C172.072 7.12261 172.072 7.12413 172.301 7.10441C172.501 7.08621 172.48 7.07104 172.656 7.15446C172.732 7.19086 172.801 7.2121 172.888 7.203C173.103 7.18177 173.322 7.16053 173.54 7.14233C173.575 7.1393 173.619 7.15447 173.654 7.1666C173.912 7.25761 173.912 7.26064 174.125 7.23789C174.404 7.21059 174.414 7.203 174.601 7.29552C174.73 7.35923 174.849 7.31524 174.972 7.3122C175.114 7.37136 175.27 7.42445 175.399 7.49119C175.551 7.57006 175.712 7.55639 175.886 7.53364C176.015 7.51696 176.141 7.51089 176.246 7.57308C176.346 7.63071 176.467 7.63679 176.604 7.62162C176.728 7.60797 176.854 7.57915 176.983 7.61251C177.018 7.62161 177.07 7.64437 177.068 7.65802C177.065 7.67926 177.031 7.7096 176.997 7.7187C176.754 7.78088 176.489 7.77936 176.233 7.80818C176.199 7.81273 176.154 7.79604 176.12 7.7839C176.046 7.7566 175.975 7.72476 175.904 7.69594C175.775 7.70504 175.644 7.70807 175.517 7.72627C175.42 7.73992 175.346 7.73842 175.275 7.70201C175.209 7.66865 175.138 7.62769 175.059 7.61707C174.98 7.60645 174.888 7.6292 174.801 7.6383C174.714 7.6474 174.614 7.64285 174.546 7.66711C174.477 7.69138 174.435 7.74447 174.391 7.78694C174.341 7.83396 174.272 7.84914 174.172 7.85369C174.08 7.85824 174.006 7.85216 173.938 7.8097C173.909 7.79149 173.869 7.77784 173.83 7.7657C173.793 7.75509 173.751 7.7384 173.717 7.74143C173.325 7.77632 172.935 7.81425 172.543 7.85065C172.348 7.86885 172.351 7.86884 171.945 7.77935C171.908 7.77177 171.864 7.76115 171.827 7.76419C171.608 7.78239 171.392 7.80362 171.174 7.82486C170.953 7.84609 170.956 7.84306 170.579 7.7475C170.511 7.7293 170.411 7.75357 170.329 7.75054C170.158 7.74296 170.074 7.61556 169.874 7.63982C169.703 7.66106 169.523 7.6656 169.352 7.6929C169.197 7.71717 169.108 7.66409 169.002 7.62314C168.966 7.60949 168.926 7.57915 168.894 7.58219C168.502 7.61555 168.113 7.65347 167.591 7.65802C167.462 7.65802 167.52 7.68988 167.605 7.7005C167.726 7.71718 167.765 7.68533 167.699 7.62466C167.652 7.58219 167.584 7.56094 167.528 7.57156C167.499 7.57763 167.462 7.60645 167.591 7.65802C167.728 7.71566 167.72 7.7475 167.744 7.7657C167.802 7.80969 167.884 7.82789 167.968 7.82182C168.1 7.81121 168.228 7.79604 168.36 7.78694C168.397 7.78391 168.442 7.79453 168.476 7.80666C168.765 7.9007 168.768 7.90677 169.076 7.87037C169.173 7.85975 169.245 7.85975 169.321 7.88857C169.426 7.928 169.502 7.99473 169.663 7.9735C169.876 7.94468 170.095 7.92801 170.313 7.91132C170.347 7.90829 170.384 7.93559 170.424 7.94772C170.532 7.98412 170.611 8.05238 170.771 8.02356C170.895 8.00081 171.029 7.99473 171.161 7.99018C171.195 7.98866 171.248 8.01293 171.263 8.03265C171.295 8.06753 171.256 8.1085 171.166 8.13731C171.129 8.14945 171.079 8.14641 171.037 8.15096C170.863 8.16764 170.69 8.18584 170.516 8.19949C170.424 8.20707 170.337 8.22983 170.326 8.28595C170.318 8.32387 170.413 8.35723 170.503 8.3542C170.634 8.34964 170.766 8.33751 170.892 8.31779C171.116 8.28443 171.311 8.29352 171.492 8.38908C171.621 8.45581 171.614 8.43156 171.75 8.62873C171.785 8.67878 171.887 8.68333 171.977 8.68029C172.193 8.67271 172.293 8.69547 172.274 8.74249C172.251 8.80012 172.174 8.81831 172.077 8.8259C171.903 8.83803 171.729 8.85776 171.556 8.87444C171.514 8.87899 171.466 8.88808 171.427 8.88505C171.387 8.88202 171.35 8.86382 171.316 8.85017C171.242 8.82135 171.179 8.77736 171.1 8.76674C171.021 8.75612 170.929 8.77888 170.842 8.78798C170.755 8.79556 170.663 8.81831 170.584 8.8077C170.505 8.79708 170.44 8.75159 170.368 8.72429C170.334 8.71064 170.292 8.68939 170.258 8.6909C170.084 8.70304 169.911 8.72276 169.737 8.73793C169.524 8.75765 169.524 8.75765 169.266 8.66361C169.192 8.63631 169.116 8.63783 169.018 8.64997C168.808 8.67424 168.805 8.66967 168.421 8.5817C168.384 8.5726 168.339 8.56199 168.302 8.56654C167.91 8.60143 167.52 8.63934 167.131 8.67574C166.796 8.70759 166.796 8.7076 166.612 8.85928C166.475 8.97151 166.473 8.97151 166.607 9.02308C166.715 9.06555 166.812 9.12773 166.931 9.15048C167.041 9.17171 167.178 9.10346 167.299 9.17323C167.36 9.20812 167.439 9.24604 167.515 9.2521C167.636 9.25969 167.765 9.2157 167.881 9.28243C167.939 9.3158 168.026 9.3507 168.1 9.35221C168.228 9.35525 168.36 9.33097 168.489 9.32035C168.529 9.31732 168.573 9.31732 168.61 9.3249C168.65 9.334 168.684 9.35221 168.718 9.36738C168.823 9.41895 168.937 9.44321 169.073 9.41742C169.297 9.37495 169.497 9.39619 169.671 9.49326C169.695 9.50691 169.753 9.50843 169.789 9.50237C169.884 9.4872 169.966 9.48568 170.037 9.51449C170.066 9.52663 170.108 9.54785 170.103 9.5615C170.095 9.58426 170.063 9.61459 170.029 9.62218C169.781 9.67375 169.516 9.67982 169.26 9.70712C169.226 9.71016 169.184 9.69043 169.15 9.67678C169.076 9.64948 169.013 9.60398 168.934 9.59337C168.855 9.58275 168.763 9.60247 168.676 9.61005C168.589 9.61763 168.497 9.64039 168.418 9.63129C168.339 9.62067 168.265 9.58274 168.202 9.54938C168.128 9.51146 168.057 9.50692 167.96 9.52209C167.834 9.5418 167.702 9.54483 167.573 9.55545C167.502 9.52663 167.431 9.49477 167.357 9.46747C167.323 9.45382 167.281 9.43714 167.244 9.43866C167.07 9.45079 166.896 9.46898 166.723 9.48567C166.549 9.50235 166.549 9.50237 166.254 9.40833C166.22 9.39771 166.175 9.38558 166.138 9.38861C165.92 9.40681 165.704 9.42955 165.486 9.44775C165.401 9.45533 165.325 9.4341 165.257 9.39315C165.191 9.3522 165.112 9.32945 165.03 9.33703C164.683 9.36888 164.335 9.39922 163.988 9.43714C163.848 9.45231 163.73 9.43866 163.635 9.38406C163.525 9.32187 163.401 9.33704 163.272 9.34918C162.98 9.37951 162.977 9.37798 162.79 9.30063C162.753 9.28546 162.716 9.25664 162.682 9.25816C162.38 9.28091 162.074 9.30215 161.774 9.33855C161.616 9.35827 161.532 9.30518 161.427 9.26575C161.39 9.2521 161.35 9.22328 161.319 9.22631C161.1 9.243 160.882 9.25817 160.669 9.2885C160.455 9.31884 160.374 9.17779 160.213 9.1793C159.995 9.18082 159.779 9.21571 159.563 9.23694C159.389 9.25362 159.216 9.2703 159.042 9.28699C158.868 9.30367 158.694 9.31731 158.521 9.33703C158.429 9.34765 158.36 9.33399 158.284 9.29608C158.186 9.24603 158.071 9.20661 157.965 9.1611C157.805 9.09589 157.805 9.09588 157.61 9.11408C157.568 9.11863 157.523 9.12165 157.481 9.1262C157.162 9.15957 157.162 9.15655 156.757 9.061C156.739 9.05645 156.691 9.07313 156.673 9.08527C156.617 9.1247 156.568 9.16716 156.518 9.20811C156.446 9.18385 156.36 9.1702 156.312 9.13531C156.178 9.03673 155.967 9.17171 155.83 9.07464C155.78 9.03824 155.694 9.00639 155.615 8.99729C155.533 8.98819 155.441 9.00942 155.357 9.01852C155.138 9.04127 155.138 9.03976 154.951 9.17475C154.857 9.24149 154.72 9.22935 154.596 9.24451C154.467 9.2612 154.343 9.2703 154.235 9.20811C154.138 9.15199 154.019 9.13835 153.88 9.15655C153.709 9.1793 153.533 9.19294 153.359 9.2066C153.322 9.20963 153.277 9.20205 153.24 9.19295C152.838 9.10346 152.838 9.10195 152.643 9.12167C152.556 9.13077 152.466 9.13379 152.382 9.14744C152.24 9.17171 152.132 9.13986 152.029 9.09132C151.995 9.07615 151.956 9.04735 151.922 9.04887C151.748 9.05645 151.577 9.0701 151.406 9.08375C151.274 9.09437 151.142 9.10043 151.016 9.12167C150.805 9.15655 150.703 9.05795 150.558 9.01245C150.342 9.03217 150.124 9.04582 149.908 9.07312C149.808 9.08526 149.742 9.08072 149.666 9.04431C149.568 8.99881 149.479 8.94724 149.321 8.97C149.11 9.00033 148.889 9.01095 148.673 9.02915C148.529 8.98213 148.423 8.88657 148.215 8.92145C148.089 8.94268 147.955 8.94723 147.826 8.95937C147.652 8.97605 147.478 8.99123 147.305 9.00943C147.118 9.02763 147.12 9.02308 146.833 8.9336C146.668 8.88051 146.496 8.93966 146.328 8.94876C146.196 8.95634 146.131 9.02611 146.162 9.11559C146.194 9.20508 146.123 9.27485 146.002 9.28699C145.699 9.3158 145.393 9.34613 145.091 9.37191C145.054 9.37495 145.009 9.36433 144.975 9.35371C144.651 9.25816 144.651 9.25969 144.506 9.27334C144.291 9.29609 144.069 9.30821 143.856 9.33703C143.709 9.35675 143.601 9.32491 143.506 9.27334C143.432 9.23391 143.364 9.2248 143.269 9.2339C142.227 9.33552 141.184 9.42956 140.145 9.53421C139.989 9.54938 139.9 9.5054 139.795 9.46445C139.758 9.4508 139.724 9.42198 139.687 9.42198C139.6 9.42198 139.513 9.43563 139.426 9.44473C139.037 9.48113 138.647 9.52511 138.255 9.55241C138.089 9.56455 138.044 9.63432 137.973 9.69196C137.918 9.73594 137.855 9.75414 137.757 9.7602C137.663 9.76627 137.594 9.75868 137.52 9.71925C137.426 9.66768 137.318 9.63582 137.17 9.65706C136.999 9.68133 136.825 9.69196 136.649 9.70864C136.56 9.71622 136.491 9.74352 136.462 9.79812C136.457 9.80722 136.512 9.82998 136.544 9.84363C136.649 9.88913 136.749 9.94222 136.868 9.97407C136.989 10.0059 137.12 9.9695 137.247 9.9604C137.291 9.95737 137.333 9.94828 137.376 9.94979C137.415 9.95131 137.462 9.9589 137.491 9.97255C137.628 10.0408 137.773 10.0878 137.963 10.0469C138.126 10.0666 138.21 10.1925 138.418 10.1591C138.544 10.1394 138.676 10.1303 138.808 10.1227C138.842 10.1212 138.879 10.1485 138.915 10.1621C139.021 10.2001 139.105 10.2607 139.263 10.2349C139.431 10.2076 139.61 10.2031 139.782 10.1819C139.876 10.1697 139.945 10.1803 140.018 10.2198C140.113 10.2698 140.221 10.3077 140.368 10.2835C140.495 10.2622 140.629 10.2577 140.758 10.244C140.927 10.2273 140.927 10.2289 141.227 10.3229C141.261 10.3335 141.306 10.3457 141.342 10.3426C141.561 10.3244 141.777 10.3017 141.995 10.2835C142.079 10.2759 142.161 10.2956 142.219 10.3396C142.243 10.3578 142.235 10.3881 142.243 10.4139C141.808 10.4549 141.374 10.4898 140.942 10.5398C140.779 10.5595 140.705 10.4973 140.597 10.4624C140.561 10.4503 140.521 10.4245 140.487 10.4276C140.182 10.4534 139.879 10.4806 139.576 10.514C139.481 10.5246 139.41 10.5186 139.339 10.4746C139.158 10.3578 138.937 10.4215 138.731 10.4382C138.573 10.4503 138.523 10.4973 138.542 10.5974C138.565 10.7157 138.66 10.7521 138.902 10.7309C138.989 10.7233 139.076 10.7127 139.163 10.7066C139.247 10.7006 139.324 10.7203 139.392 10.7612C139.458 10.8022 139.537 10.8234 139.618 10.8174C139.792 10.8037 139.968 10.7901 140.137 10.7673C140.276 10.7491 140.392 10.7643 140.49 10.8204C140.598 10.8826 140.724 10.8689 140.85 10.8553C141.145 10.8249 141.148 10.8265 141.332 10.9023C141.369 10.9175 141.406 10.9463 141.44 10.9448C141.743 10.922 142.048 10.9023 142.345 10.8659C142.501 10.8477 142.59 10.8962 142.693 10.9357C142.73 10.9493 142.766 10.9797 142.801 10.9766C143.019 10.9599 143.238 10.9432 143.451 10.9144C143.551 10.9008 143.611 10.9099 143.693 10.9463C143.888 11.0358 143.893 11.0327 144.169 11.0039C144.254 10.9948 144.346 10.9781 144.425 10.9903C144.504 11.0024 144.567 11.0464 144.641 11.0737C144.675 11.0858 144.717 11.1025 144.754 11.0995C144.928 11.0873 145.101 11.0691 145.275 11.0525C145.438 11.0358 145.438 11.0373 145.744 11.1313C145.867 11.1708 145.996 11.1374 146.12 11.1253C146.254 11.1116 146.375 11.1116 146.478 11.1708C146.581 11.2299 146.704 11.2269 146.836 11.2147C146.96 11.2026 147.086 11.1693 147.212 11.2102C147.502 11.3042 147.502 11.3057 147.681 11.2875C147.942 11.2618 148.2 11.2375 148.463 11.2147C148.497 11.2117 148.542 11.2299 148.576 11.242C148.65 11.2694 148.713 11.3148 148.792 11.3255C148.871 11.3376 148.963 11.3194 149.047 11.3103C149.318 11.2815 149.337 11.2709 149.518 11.371C149.671 11.4529 149.861 11.3346 150.003 11.4286C150.084 11.4817 150.195 11.5242 150.347 11.4984C150.474 11.4771 150.605 11.4711 150.737 11.4589C150.945 11.4392 150.945 11.4407 151.208 11.5317C151.242 11.5439 151.287 11.559 151.321 11.556C151.495 11.5439 151.671 11.5333 151.84 11.506C152.037 11.4741 152.164 11.5317 152.311 11.5879C152.427 11.6319 152.564 11.5954 152.688 11.5803C152.822 11.5651 152.943 11.5697 153.043 11.6288C153.148 11.6895 153.272 11.6819 153.404 11.6698C153.527 11.6591 153.654 11.6243 153.78 11.6667C154.051 11.7608 154.051 11.7608 154.248 11.7426C154.422 11.7259 154.596 11.7077 154.77 11.6955C154.804 11.6925 154.846 11.7122 154.88 11.7259C154.954 11.7532 155.017 11.7987 155.096 11.8093C155.175 11.8199 155.267 11.8002 155.354 11.7926C155.441 11.785 155.533 11.7623 155.612 11.7714C155.691 11.7805 155.765 11.8184 155.828 11.8518C155.902 11.8912 155.97 11.8958 156.07 11.8806C156.196 11.8609 156.328 11.8563 156.457 11.8457C156.528 11.8745 156.602 11.9033 156.67 11.9352C156.741 11.9686 156.818 11.9655 156.915 11.9549C157.239 11.9185 157.241 11.9231 157.512 12.0171C157.636 12.0596 157.765 12.0247 157.889 12.0141C158.021 12.0019 158.144 11.9959 158.247 12.0565C158.347 12.1142 158.471 12.1217 158.602 12.1035C158.686 12.0914 158.776 12.0838 158.863 12.0793C158.902 12.0778 158.95 12.0838 158.979 12.096C159.118 12.1597 159.255 12.2173 159.447 12.1764C159.616 12.1885 159.7 12.3129 159.903 12.2886C160.074 12.2674 160.253 12.2628 160.421 12.2355C160.576 12.2112 160.687 12.2537 160.766 12.3068C160.908 12.4008 161.108 12.2734 161.25 12.3659C161.332 12.419 161.437 12.4615 161.595 12.4387C161.769 12.4145 161.824 12.4463 161.874 12.5419C161.903 12.5965 161.898 12.6405 161.845 12.6829C161.793 12.7269 161.735 12.7193 161.65 12.6693C161.553 12.6132 161.437 12.6025 161.298 12.6147C161.161 12.6268 161.077 12.548 160.963 12.5176C160.85 12.4858 160.716 12.5389 160.598 12.4979C160.319 12.4023 160.319 12.4023 160.129 12.4205C160 12.4327 159.866 12.4388 159.739 12.46C159.589 12.4858 159.492 12.4387 159.389 12.3963C159.352 12.3811 159.316 12.3523 159.284 12.3538C158.981 12.3766 158.676 12.3978 158.376 12.4357C158.218 12.4554 158.134 12.4008 158.028 12.3629C157.992 12.3493 157.952 12.322 157.92 12.325C157.66 12.3462 157.402 12.3735 157.141 12.3993C157.091 12.4403 157.036 12.4797 156.989 12.5237C156.939 12.5692 156.87 12.5889 156.77 12.5874C156.604 12.5874 156.441 12.6511 156.275 12.5707C156.104 12.4888 156.091 12.4933 155.925 12.5131C155.715 12.5389 155.491 12.5328 155.293 12.5919C155.259 12.6026 155.222 12.6314 155.222 12.6526C155.22 12.6662 155.275 12.686 155.309 12.6981C155.425 12.7345 155.559 12.6814 155.675 12.7193C155.751 12.7436 155.815 12.78 155.891 12.8058C155.923 12.8164 155.97 12.8149 156.012 12.8134C156.057 12.8119 156.099 12.8012 156.141 12.8028C156.181 12.8043 156.223 12.8134 156.254 12.827C156.399 12.8847 156.552 12.9377 156.681 13.006C156.807 13.0727 156.925 13.0272 157.052 13.0242C157.557 13.1304 157.557 13.1319 157.897 13.0985C157.981 13.0909 158.068 13.0818 158.155 13.0834C158.192 13.0834 158.226 13.1106 158.263 13.1258C158.368 13.1713 158.468 13.2123 158.615 13.188C158.742 13.1668 158.876 13.1622 159.005 13.1486C159.179 13.1319 159.179 13.1319 159.474 13.2274C159.547 13.2517 159.626 13.2487 159.721 13.2365C159.803 13.2259 159.887 13.2487 159.945 13.2927C159.968 13.3109 159.96 13.3412 159.968 13.367C159.708 13.3913 159.445 13.4079 159.192 13.4443C159.029 13.4671 158.955 13.4019 158.847 13.367C158.81 13.3549 158.771 13.3291 158.736 13.3321C158.479 13.3549 158.221 13.3806 157.963 13.411C157.931 13.414 157.892 13.4489 157.889 13.4701C157.884 13.5095 157.949 13.5475 158.044 13.5459C158.171 13.5444 158.294 13.5186 158.407 13.5808C158.502 13.6354 158.621 13.6597 158.76 13.6354C158.844 13.6218 158.934 13.6218 159.018 13.6097C159.242 13.5733 159.445 13.5808 159.613 13.684C159.742 13.7113 159.868 13.6855 159.992 13.6718C160.084 13.6612 160.174 13.6506 160.24 13.6794C160.379 13.7401 160.516 13.8008 160.708 13.7598C160.916 13.8023 161.074 13.8918 161.248 13.9646C161.329 13.9995 161.392 14.0192 161.487 13.9964C161.527 13.9873 161.574 13.9873 161.616 13.9828C161.703 13.9752 161.795 13.9524 161.874 13.9615C161.953 13.9721 162.019 14.0161 162.09 14.0434C162.124 14.0571 162.164 14.0798 162.198 14.0783C162.33 14.0707 162.458 14.0556 162.587 14.0434C162.716 14.0328 162.845 14.0222 162.974 14.0116C163.082 14.051 163.193 14.0905 163.301 14.1299C163.475 14.1132 163.648 14.0965 163.819 14.0814C164.012 14.0632 164.012 14.0647 164.288 14.1587C164.412 14.2012 164.543 14.1739 164.662 14.1542C164.859 14.1223 164.991 14.18 165.13 14.2406C165.159 14.2528 165.212 14.2603 165.246 14.2543C165.383 14.233 165.501 14.2497 165.601 14.3058C165.673 14.3453 165.744 14.3635 165.83 14.3559C166.133 14.3271 166.436 14.2967 166.739 14.2709C166.775 14.2679 166.818 14.2816 166.852 14.2937C167.12 14.3862 167.123 14.3908 167.32 14.3665C167.497 14.3453 167.66 14.3362 167.799 14.4196C167.828 14.4378 167.873 14.4636 167.905 14.4621C168.12 14.4469 168.339 14.4302 168.552 14.4044C168.65 14.3923 168.718 14.3968 168.794 14.4317C168.892 14.4757 168.979 14.5288 169.139 14.5091C169.584 14.453 169.587 14.462 170.113 14.5667C170.15 14.5743 170.2 14.5622 170.242 14.5561C170.332 14.5409 170.397 14.5622 170.476 14.597C170.653 14.6759 170.658 14.6714 170.827 14.6547C170.955 14.641 171.09 14.638 171.216 14.6152C171.411 14.5819 171.54 14.641 171.685 14.6972C171.8 14.7411 171.935 14.7047 172.058 14.6911C172.193 14.6759 172.314 14.6805 172.414 14.7381C172.482 14.7775 172.556 14.7988 172.643 14.7912C172.945 14.7639 173.248 14.7335 173.551 14.7062C173.588 14.7032 173.633 14.7153 173.667 14.726C173.967 14.82 173.967 14.8246 174.264 14.7897C174.359 14.7791 174.438 14.776 174.509 14.8079C174.577 14.8382 174.651 14.867 174.722 14.8958C174.851 14.8852 174.983 14.8822 175.109 14.864C175.207 14.8503 175.275 14.8564 175.351 14.8883C175.451 14.9292 175.536 15.0005 175.694 14.9656C175.775 14.9489 175.87 14.9535 175.952 14.9383C176.049 14.9186 176.115 14.9307 176.191 14.9702C176.286 15.0172 176.383 15.0657 176.536 15.0414C176.704 15.0141 176.883 15.0096 177.054 14.9884C177.149 14.9762 177.215 14.9884 177.291 15.0278C177.386 15.0778 177.494 15.1097 177.641 15.09C177.942 15.0521 177.944 15.0596 178.236 15.1552C178.31 15.1795 178.389 15.1764 178.484 15.1643C178.565 15.1537 178.65 15.1764 178.708 15.2204C178.763 15.269 178.758 15.2993 178.763 15.3251ZM155.307 1.64571C155.22 1.6533 155.133 1.6624 155.007 1.53044C154.999 1.50769 155.004 1.4804 154.986 1.46068C154.943 1.41973 154.878 1.39091 154.799 1.38636C154.656 1.38029 154.485 1.43185 154.488 1.47129C154.491 1.50466 154.535 1.53347 154.622 1.56077C154.659 1.57139 154.688 1.58959 154.722 1.60172C154.822 1.63661 154.901 1.70487 155.046 1.66999C155.02 1.57595 155.033 1.62297 155.046 1.66999C155.033 1.72762 155.072 1.76858 155.167 1.78526C155.193 1.78981 155.233 1.78677 155.254 1.77767C155.336 1.7443 155.349 1.69881 155.288 1.57899C155.278 1.59871 155.286 1.63358 155.309 1.64268C155.333 1.65178 155.391 1.6442 155.42 1.63359C155.494 1.60477 155.53 1.56685 155.512 1.535C155.501 1.51831 155.451 1.49708 155.42 1.49708C155.365 1.49708 155.315 1.53044 155.307 1.64571ZM176.591 19.2352C176.399 19.264 176.178 19.2534 175.986 19.3125C175.952 19.3232 175.917 19.3505 175.915 19.3717C175.912 19.3854 175.965 19.4051 175.996 19.4157C176.067 19.44 176.146 19.4324 176.238 19.4248C176.378 19.4142 176.46 19.4839 176.568 19.5188C176.602 19.5294 176.646 19.537 176.683 19.534C176.897 19.5158 177.107 19.4961 177.32 19.4748C177.357 19.4703 177.397 19.4597 177.428 19.446C177.534 19.402 177.523 19.3732 177.42 19.3399C177.307 19.3035 177.218 19.2428 177.102 19.214C176.936 19.173 176.768 19.2276 176.591 19.2352ZM161.643 20.3424C161.514 20.3545 161.387 20.3667 161.258 20.3788C161.216 20.3834 161.171 20.3849 161.132 20.3909C161.05 20.4016 160.99 20.4334 160.95 20.4835C161.011 20.5229 161.084 20.5456 161.166 20.5411C161.295 20.532 161.421 20.5123 161.55 20.5077C161.69 20.5017 161.771 20.5699 161.879 20.6048C161.914 20.6154 161.956 20.6169 161.995 20.6184C162.19 20.6245 162.308 20.5456 162.272 20.4349C162.245 20.3485 162.145 20.2969 162.024 20.3075C161.898 20.3181 161.769 20.3303 161.643 20.3424ZM177.491 16.9935C177.523 16.9677 177.557 16.9495 177.573 16.9267C177.62 16.8494 177.602 16.7917 177.515 16.7311C177.41 16.6568 177.281 16.7068 177.162 16.7144C177.133 16.7159 177.102 16.7478 177.086 16.7675C177.076 16.7811 177.076 16.81 177.091 16.8175C177.22 16.8782 177.357 16.9343 177.491 16.9935ZM154.656 12.5131C154.53 12.5252 154.401 12.5343 154.275 12.551C154.243 12.5555 154.214 12.5843 154.196 12.6041C154.162 12.6405 154.198 12.6905 154.306 12.6951C154.43 12.7011 154.559 12.6754 154.688 12.6632C154.851 12.6481 154.949 12.5919 154.888 12.5434C154.83 12.4964 154.751 12.4873 154.656 12.5131ZM16.0963 9.27182C16.1805 9.26424 16.2674 9.25817 16.3516 9.24755C16.4306 9.23693 16.4912 9.20357 16.5307 9.15351C16.4649 9.11408 16.3911 9.09284 16.3095 9.09739C16.1806 9.1065 16.0542 9.11863 15.9279 9.13379C15.8489 9.1429 15.7726 9.17626 15.7542 9.22783C15.7357 9.26727 15.9121 9.29002 16.0963 9.27182ZM143.525 9.03824C143.559 9.05189 143.593 9.0792 143.627 9.0792C143.711 9.0792 143.798 9.07009 143.877 9.05492C143.912 9.04886 143.938 9.02156 143.954 9.00032C143.964 8.98667 143.962 8.96241 143.946 8.95028C143.869 8.87747 143.564 8.90326 143.514 8.98668C143.509 9.00184 143.522 9.02156 143.525 9.03824ZM135.22 0.732642C135.228 0.75691 135.23 0.781175 135.241 0.805442C135.262 0.850944 135.32 0.884319 135.404 0.90707C135.47 0.869152 135.504 0.82669 135.501 0.781188C135.499 0.75692 135.491 0.732637 135.48 0.70837C135.459 0.662868 135.401 0.629512 135.317 0.606761C135.251 0.643162 135.22 0.685624 135.22 0.732642ZM183.575 20.6063C183.551 20.626 183.527 20.6458 183.501 20.664C183.572 20.7079 183.638 20.7216 183.688 20.6973C183.719 20.6822 183.738 20.6594 183.762 20.6397C183.69 20.5957 183.627 20.5836 183.575 20.6063ZM181.937 20.8126C181.972 20.8262 182.003 20.8444 182.04 20.8535C182.101 20.8687 182.156 20.8429 182.198 20.7883C182.164 20.7747 182.132 20.7565 182.095 20.7474C182.035 20.7322 181.979 20.758 181.937 20.8126ZM182.974 20.535C182.956 20.5714 182.993 20.6018 183.09 20.6276C183.114 20.6078 183.146 20.5896 183.161 20.5684C183.188 20.5335 183.143 20.5017 183.048 20.4774C183.022 20.4956 182.998 20.5153 182.974 20.535ZM177.418 18.9C177.399 18.9364 177.436 18.9667 177.534 18.9925C177.557 18.9728 177.589 18.9546 177.605 18.9334C177.631 18.8985 177.586 18.8666 177.491 18.8424C177.465 18.8606 177.441 18.8803 177.418 18.9ZM169.847 8.16764C169.824 8.18736 169.8 8.20708 169.774 8.22528C169.845 8.26926 169.91 8.28291 169.96 8.25864C169.992 8.24347 170.01 8.22072 170.034 8.201C169.963 8.15702 169.9 8.14489 169.847 8.16764ZM162.595 2.47384C162.659 2.48446 162.711 2.46323 162.756 2.40711C162.722 2.39346 162.69 2.37526 162.653 2.36616C162.593 2.35099 162.538 2.37679 162.495 2.43139C162.53 2.44655 162.564 2.46019 162.595 2.47384ZM158.744 2.11741C158.721 2.13713 158.697 2.15685 158.671 2.17505C158.742 2.21904 158.808 2.23268 158.858 2.20841C158.889 2.19325 158.908 2.1705 158.931 2.15078C158.86 2.10679 158.797 2.09618 158.744 2.11741ZM132.63 0.731124C132.606 0.750842 132.582 0.77056 132.556 0.788761C132.627 0.832746 132.693 0.846392 132.743 0.822124C132.774 0.806957 132.793 0.784205 132.817 0.764488C132.745 0.720503 132.682 0.70989 132.63 0.731124ZM2.59802 13.0712C2.5638 13.0576 2.52961 13.0439 2.49802 13.0288C2.42169 13.0697 2.398 13.1076 2.44012 13.1364C2.46644 13.1546 2.5059 13.1653 2.54012 13.1789C2.61908 13.138 2.6375 13.1015 2.59802 13.0712Z" fill="#FFE492"/>
</svg>
